<svg width="144" height="46" viewBox="0 0 144 46" fill="none" xmlns="http://www.w3.org/2000/svg">
<g id="Group 480964072">
<path id="Vector" d="M9.2305 45.9977C8.85906 45.9977 8.49663 45.993 8.12811 45.9848C7.36472 45.9751 6.60313 45.9096 5.84955 45.7888C5.14688 45.6694 4.46619 45.4473 3.82993 45.1298C3.19948 44.815 2.62446 44.4023 2.1269 43.9073C1.6221 43.4182 1.20182 42.8509 0.882724 42.228C0.560147 41.6009 0.336905 40.9288 0.220772 40.2351C0.0954013 39.4896 0.027589 38.7359 0.0179202 37.9803C0.0101182 37.7267 0 36.8824 0 36.8824V9.10259C0 9.10259 0.0107278 8.27115 0.0179202 8.02679C0.0272089 7.27244 0.0946551 6.51987 0.219675 5.77561C0.336036 5.07996 0.559468 4.40593 0.882236 3.77685C1.2001 3.15429 1.618 2.58657 2.11971 2.09569C2.62089 1.60015 3.19777 1.18523 3.82932 0.866077C4.46414 0.549684 5.14355 0.329199 5.8448 0.21201C6.60086 0.0900955 7.36512 0.0242118 8.13115 0.0149116L9.23111 0H134.513L135.626 0.0152724C136.385 0.0241686 137.142 0.0895323 137.891 0.210807C138.6 0.3295 139.286 0.55156 139.928 0.869685C141.193 1.51285 142.223 2.53041 142.872 3.77974C143.19 4.4045 143.41 5.07307 143.525 5.76275C143.651 6.5131 143.722 7.27156 143.737 8.03208C143.74 8.37264 143.74 8.73846 143.74 9.10259C143.75 9.55355 143.75 9.98274 143.75 10.4155V35.5833C143.75 36.0201 143.75 36.4464 143.74 36.8762C143.74 37.2673 143.74 37.6255 143.735 37.9943C143.721 38.7413 143.651 39.4862 143.527 40.2232C143.413 40.9219 143.191 41.5993 142.869 42.2314C142.547 42.8476 142.13 43.41 141.631 43.8978C141.133 44.3954 140.557 44.8106 139.925 45.1274C139.284 45.4473 138.599 45.6702 137.891 45.7886C137.138 45.91 136.376 45.9756 135.613 45.9847C135.248 45.9931 134.883 45.9974 134.519 45.9976L133.197 46L9.2305 45.9977Z" fill="black"/>
<path id="Vector_2" d="M31.5111 22.2613C31.5234 21.3164 31.7778 20.3899 32.2506 19.568C32.7234 18.7461 33.3992 18.0556 34.2151 17.5606C33.6968 16.8302 33.013 16.2291 32.218 15.8051C31.423 15.381 30.5387 15.1457 29.6354 15.1178C27.7084 14.9182 25.8404 16.2554 24.8584 16.2554C23.8576 16.2554 22.3457 15.1376 20.7178 15.1707C19.6648 15.2042 18.6385 15.5063 17.739 16.0475C16.8395 16.5887 16.0974 17.3506 15.5851 18.2589C13.3658 22.0499 15.0212 27.6213 17.1472 30.6855C18.2108 32.1861 19.4537 33.8621 21.0803 33.8027C22.6719 33.7376 23.2663 32.8013 25.1876 32.8013C27.0911 32.8013 27.6488 33.8027 29.3083 33.7649C31.0162 33.7376 32.0922 32.2578 33.1185 30.743C33.8827 29.6739 34.4707 28.4922 34.8608 27.2419C33.8686 26.8278 33.0218 26.1347 32.4262 25.249C31.8305 24.3634 31.5122 23.3243 31.5111 22.2613ZM28.3766 13.1024C29.3078 11.9995 29.7666 10.5819 29.6555 9.15056C28.2328 9.29799 26.9186 9.96885 25.9748 11.0295C25.5133 11.5476 25.1599 12.1504 24.9347 12.8034C24.7095 13.4564 24.617 14.1468 24.6624 14.8351C25.374 14.8423 26.078 14.6902 26.7214 14.39C27.3647 14.0899 27.9307 13.6497 28.3766 13.1024ZM51.6305 30.0041H46.1989L44.8946 33.804H42.5939L47.7386 19.745H50.1289L55.2735 33.804H52.9337L51.6305 30.0041ZM46.7614 28.2505H51.0668L48.9444 22.0835H48.885L46.7614 28.2505ZM66.3842 28.6796C66.3842 31.8648 64.6562 33.9113 62.0486 33.9113C61.3881 33.9454 60.7311 33.7952 60.153 33.4781C59.5749 33.1609 59.099 32.6896 58.7798 32.1179H58.7304V37.1949H56.598V23.5539H58.6622V25.2588H58.7014C59.0353 24.6899 59.5192 24.221 60.1017 23.9019C60.6842 23.5828 61.3435 23.4255 62.0094 23.4467C64.6461 23.4467 66.3842 25.5031 66.3842 28.6795V28.6796ZM64.1923 28.6796C64.1923 26.6044 63.1054 25.24 61.4469 25.24C59.8175 25.24 58.7216 26.633 58.7216 28.6795C58.7216 30.7449 59.8175 32.128 61.4469 32.128C63.1054 32.128 64.1923 30.7736 64.1923 28.6795V28.6796ZM77.8187 28.6796C77.8187 31.8648 76.0908 33.9113 73.4831 33.9113C72.8226 33.9453 72.1657 33.7952 71.5876 33.4781C71.0095 33.1609 70.5336 32.6895 70.2144 32.1179H70.1651V37.1949H68.0326V23.5539H70.0967V25.2588H70.1359C70.4698 24.6899 70.9537 24.221 71.5362 23.9019C72.1187 23.5828 72.778 23.4255 73.4439 23.4467C76.0807 23.4467 77.8187 25.5031 77.8187 28.6795V28.6796ZM75.6269 28.6796C75.6269 26.6044 74.5399 25.24 72.8814 25.24C71.252 25.24 70.1561 26.633 70.1561 28.6795C70.1561 30.7449 71.252 32.128 72.8814 32.128C74.5399 32.128 75.6269 30.7736 75.6269 28.6795V28.6796ZM85.3761 29.8869C85.5341 31.281 86.9068 32.1965 88.7826 32.1965C90.58 32.1965 91.8733 31.281 91.8733 30.0239C91.8733 28.9326 91.0933 28.2793 89.2467 27.8315L87.3998 27.3926C84.7833 26.769 83.5685 25.5616 83.5685 23.6025C83.5685 21.1767 85.7111 19.5106 88.7535 19.5106C91.7645 19.5106 93.8287 21.1767 93.8981 23.6025H91.7454C91.6166 22.1995 90.4411 21.3525 88.7232 21.3525C87.0054 21.3525 85.8299 22.2095 85.8299 23.4565C85.8299 24.4506 86.5807 25.0354 88.4173 25.4831L89.9872 25.8635C92.9108 26.5456 94.1257 27.7044 94.1257 29.7607C94.1257 32.391 92.0021 34.0384 88.6246 34.0384C85.4644 34.0384 83.3309 32.4296 83.1931 29.8868L85.3761 29.8869ZM98.7279 21.1283V23.5539H100.704V25.2201H98.7279V30.8709C98.7279 31.7487 99.1234 32.1578 99.992 32.1578C100.226 32.1537 100.461 32.1375 100.693 32.1091V33.7654C100.303 33.8374 99.9061 33.8699 99.509 33.8626C97.4056 33.8626 96.5853 33.0832 96.5853 31.0953V25.2201H95.0747V23.5539H96.5853V21.1283H98.7279ZM101.848 28.6796C101.848 25.4544 103.773 23.4279 106.775 23.4279C109.787 23.4279 111.703 25.4544 111.703 28.6796C111.703 31.9135 109.797 33.9312 106.775 33.9312C103.754 33.9312 101.848 31.9135 101.848 28.6796ZM109.53 28.6796C109.53 26.4673 108.503 25.1614 106.775 25.1614C105.047 25.1614 104.02 26.4771 104.02 28.6796C104.02 30.9008 105.047 32.1965 106.775 32.1965C108.503 32.1965 109.53 30.9008 109.53 28.6796ZM113.461 23.5539H115.495V25.2985H115.545C115.682 24.7536 116.006 24.2721 116.461 23.9349C116.916 23.5976 117.475 23.4252 118.044 23.4467C118.289 23.4458 118.535 23.4721 118.774 23.5251V25.4932C118.464 25.3996 118.14 25.3567 117.816 25.366C117.506 25.3536 117.197 25.4075 116.911 25.524C116.624 25.6405 116.366 25.8168 116.155 26.0408C115.944 26.2649 115.785 26.5313 115.688 26.8219C115.591 27.1125 115.559 27.4203 115.594 27.7243V33.804H113.461V23.5539ZM128.606 30.7934C128.319 32.6542 126.483 33.9312 124.133 33.9312C121.111 33.9312 119.235 31.9334 119.235 28.7282C119.235 25.5131 121.121 23.4279 124.043 23.4279C126.918 23.4279 128.725 25.376 128.725 28.4838V29.2047H121.387V29.3318C121.354 29.7091 121.401 30.0891 121.528 30.4467C121.654 30.8042 121.856 31.1312 122.121 31.4058C122.385 31.6804 122.706 31.8964 123.061 32.0394C123.416 32.1824 123.799 32.2491 124.182 32.2352C124.686 32.2818 125.192 32.1667 125.624 31.9069C126.056 31.6471 126.392 31.2566 126.581 30.7934H128.606ZM121.398 27.7342H126.591C126.611 27.3951 126.558 27.0556 126.438 26.7372C126.318 26.4189 126.133 26.1284 125.893 25.8841C125.654 25.6398 125.366 25.447 125.048 25.3177C124.73 25.1884 124.387 25.1254 124.043 25.1327C123.696 25.1306 123.352 25.1965 123.03 25.3264C122.709 25.4563 122.417 25.6477 122.171 25.8896C121.925 26.1315 121.73 26.419 121.597 26.7356C121.465 27.0522 121.397 27.3916 121.398 27.7342ZM46.4942 9.16268C46.9413 9.13102 47.3899 9.19765 47.8077 9.35778C48.2256 9.5179 48.6021 9.76753 48.9103 10.0886C49.2185 10.4098 49.4507 10.7944 49.59 11.2147C49.7293 11.6351 49.7723 12.0807 49.7159 12.5194C49.7159 14.6775 48.5336 15.9181 46.4942 15.9181H44.021V9.16256L46.4942 9.16268ZM45.0845 14.9627H46.3754C46.6949 14.9815 47.0146 14.9298 47.3112 14.8114C47.6079 14.6929 47.8741 14.5107 48.0903 14.278C48.3066 14.0452 48.4676 13.7679 48.5615 13.466C48.6555 13.1642 48.68 12.8455 48.6333 12.5331C48.6766 12.2219 48.6496 11.9052 48.5542 11.6056C48.4589 11.3059 48.2975 11.0308 48.0817 10.7999C47.8659 10.5691 47.601 10.3881 47.306 10.2701C47.0111 10.1521 46.6933 10.0999 46.3754 10.1173H45.0845V14.9627ZM50.9172 13.3668C50.8847 13.0318 50.9235 12.6938 51.0312 12.3744C51.1389 12.0551 51.313 11.7614 51.5425 11.5124C51.7719 11.2633 52.0515 11.0643 52.3635 10.9282C52.6754 10.792 53.0128 10.7216 53.3539 10.7216C53.695 10.7216 54.0323 10.792 54.3443 10.9282C54.6562 11.0643 54.9359 11.2633 55.1653 11.5124C55.3947 11.7614 55.5689 12.0551 55.6766 12.3744C55.7842 12.6938 55.8231 13.0318 55.7906 13.3668C55.8238 13.7022 55.7855 14.0408 55.6781 14.3607C55.5708 14.6807 55.3968 14.9749 55.1673 15.2245C54.9378 15.4741 54.6579 15.6736 54.3456 15.8101C54.0333 15.9466 53.6955 16.0171 53.3539 16.0171C53.0123 16.0171 52.6745 15.9466 52.3622 15.8101C52.0499 15.6736 51.77 15.4741 51.5405 15.2245C51.311 14.9749 51.137 14.6807 51.0297 14.3607C50.9223 14.0408 50.884 13.7022 50.9172 13.3668ZM54.7418 13.3668C54.7418 12.2617 54.2386 11.6155 53.3556 11.6155C52.4692 11.6155 51.9706 12.2617 51.9706 13.3668C51.9706 14.4807 52.4693 15.122 53.3556 15.122C54.2386 15.122 54.7418 14.4763 54.7418 13.3668ZM62.2688 15.918H61.2109L60.143 12.1633H60.0623L58.999 15.918H57.9512L56.5269 10.8199H57.5612L58.4868 14.71H58.563L59.6254 10.8199H60.6036L61.666 14.71H61.7466L62.6677 10.8199H63.6875L62.2688 15.918ZM64.8853 10.82H65.867V11.6299H65.9432C66.0725 11.339 66.2905 11.0951 66.5669 10.9323C66.8433 10.7695 67.1643 10.6958 67.4852 10.7215C67.7366 10.7029 67.9891 10.7403 68.2238 10.831C68.4586 10.9217 68.6697 11.0633 68.8415 11.2454C69.0132 11.4275 69.1412 11.6454 69.2161 11.8829C69.2909 12.1205 69.3106 12.3716 69.2737 12.6177V15.9179H68.2539V12.8704C68.2539 12.0511 67.893 11.6437 67.1389 11.6437C66.9682 11.6358 66.7978 11.6645 66.6394 11.7277C66.481 11.7909 66.3383 11.8872 66.2211 12.0099C66.1039 12.1326 66.015 12.2788 65.9605 12.4386C65.9059 12.5984 65.8871 12.7679 65.9051 12.9356V15.918H64.8853V10.82ZM70.8985 8.82983H71.9182V15.918H70.8985V8.82983ZM73.3358 13.3668C73.3033 13.0317 73.3421 12.6937 73.4498 12.3743C73.5575 12.0549 73.7317 11.7612 73.9612 11.5121C74.1906 11.263 74.4703 11.064 74.7823 10.9278C75.0943 10.7916 75.4317 10.7213 75.7728 10.7213C76.114 10.7213 76.4514 10.7916 76.7634 10.9278C77.0754 11.064 77.3551 11.263 77.5845 11.5121C77.814 11.7612 77.9881 12.0549 78.0958 12.3743C78.2035 12.6937 78.2424 13.0317 78.2099 13.3668C78.2429 13.7022 78.2044 14.0406 78.097 14.3605C77.9896 14.6803 77.8155 14.9744 77.586 15.2239C77.3565 15.4734 77.0766 15.6728 76.7643 15.8093C76.4521 15.9457 76.1143 16.0162 75.7728 16.0162C75.4313 16.0162 75.0936 15.9457 74.7813 15.8093C74.4691 15.6728 74.1892 15.4734 73.9597 15.2239C73.7302 14.9744 73.5561 14.6803 73.4487 14.3605C73.3412 14.0406 73.3028 13.7022 73.3358 13.3668ZM77.1604 13.3668C77.1604 12.2617 76.6572 11.6155 75.7742 11.6155C74.8878 11.6155 74.3892 12.2617 74.3892 13.3668C74.3892 14.4807 74.8879 15.122 75.7742 15.122C76.6572 15.122 77.1604 14.4763 77.1604 13.3668ZM79.2833 14.4763C79.2833 13.5586 79.9759 13.0295 81.2052 12.9544L82.6048 12.8748V12.4347C82.6048 11.8963 82.244 11.5923 81.547 11.5923C80.9777 11.5923 80.5832 11.7984 80.4701 12.1589H79.4828C79.587 11.2832 80.4219 10.7216 81.594 10.7216C82.8894 10.7216 83.6201 11.3579 83.6201 12.4347V15.918H82.6384V15.2016H82.5577C82.394 15.4585 82.164 15.668 81.8913 15.8087C81.6187 15.9493 81.3131 16.016 81.0057 16.002C80.7888 16.0243 80.5696 16.0014 80.3622 15.935C80.1547 15.8685 79.9637 15.7599 79.8015 15.6162C79.6392 15.4724 79.5093 15.2967 79.42 15.1004C79.3308 14.9041 79.2842 14.6915 79.2833 14.4763ZM82.6048 14.0407V13.6144L81.343 13.694C80.6314 13.741 80.3086 13.9799 80.3086 14.4292C80.3086 14.8881 80.7121 15.1551 81.2668 15.1551C81.4293 15.1714 81.5935 15.1552 81.7496 15.1075C81.9057 15.0599 82.0504 14.9817 82.1752 14.8778C82.3001 14.7738 82.4024 14.6461 82.4762 14.5023C82.55 14.3585 82.5937 14.2015 82.6048 14.0407ZM84.9603 13.3668C84.9603 11.7559 85.7996 10.7355 87.1051 10.7355C87.428 10.7208 87.7485 10.7971 88.0291 10.9555C88.3097 11.1138 88.5388 11.3478 88.6897 11.6299H88.7658V8.82971H89.7855V15.9179H88.8084V15.1124H88.7278C88.5653 15.3926 88.3282 15.6236 88.0422 15.7804C87.7562 15.9372 87.4322 16.0138 87.1052 16.0019C85.7906 16.0019 84.9603 14.9814 84.9603 13.3667V13.3668ZM86.0137 13.3668C86.0137 14.448 86.5303 15.0988 87.3941 15.0988C88.2536 15.0988 88.7849 14.4387 88.7849 13.3711C88.7849 12.3087 88.2481 11.6393 87.3941 11.6393C86.5358 11.6393 86.0137 12.2943 86.0137 13.3668ZM94.0046 13.3668C93.9721 13.0318 94.0109 12.6938 94.1186 12.3744C94.2263 12.0551 94.4004 11.7614 94.6299 11.5124C94.8593 11.2633 95.1389 11.0643 95.4509 10.9282C95.7628 10.792 96.1002 10.7216 96.4413 10.7216C96.7824 10.7216 97.1198 10.792 97.4317 10.9282C97.7436 11.0643 98.0233 11.2633 98.2527 11.5124C98.4822 11.7614 98.6563 12.0551 98.764 12.3744C98.8716 12.6938 98.9105 13.0318 98.878 13.3668C98.9112 13.7022 98.8729 14.0408 98.7655 14.3607C98.6582 14.6807 98.4842 14.9749 98.2547 15.2245C98.0252 15.4741 97.7453 15.6736 97.433 15.8101C97.1207 15.9466 96.7829 16.0171 96.4413 16.0171C96.0997 16.0171 95.7619 15.9466 95.4496 15.8101C95.1373 15.6736 94.8574 15.4741 94.6279 15.2245C94.3984 14.9749 94.2244 14.6807 94.1171 14.3607C94.0097 14.0408 93.9714 13.7022 94.0046 13.3668ZM97.8292 13.3668C97.8292 12.2617 97.326 11.6155 96.443 11.6155C95.5566 11.6155 95.058 12.2617 95.058 13.3668C95.058 14.4807 95.5567 15.122 96.443 15.122C97.326 15.122 97.8292 14.4763 97.8292 13.3668ZM100.246 10.82H101.228V11.6299H101.304C101.433 11.339 101.651 11.0951 101.928 10.9323C102.204 10.7695 102.525 10.6958 102.846 10.7215C103.098 10.7029 103.35 10.7403 103.585 10.831C103.82 10.9217 104.031 11.0633 104.202 11.2454C104.374 11.4275 104.502 11.6454 104.577 11.8829C104.652 12.1205 104.671 12.3716 104.635 12.6177V15.9179H103.615V12.8704C103.615 12.0511 103.254 11.6437 102.5 11.6437C102.329 11.6358 102.159 11.6645 102 11.7277C101.842 11.7909 101.699 11.8872 101.582 12.0099C101.465 12.1326 101.376 12.2788 101.321 12.4386C101.267 12.5984 101.248 12.7679 101.266 12.9356V15.918H100.246L100.246 10.82ZM110.397 9.55078V10.8432H111.516V11.6907H110.397V14.312C110.397 14.8461 110.62 15.08 111.127 15.08C111.257 15.0795 111.387 15.0717 111.516 15.0567V15.8948C111.333 15.9271 111.147 15.9443 110.961 15.9462C109.827 15.9462 109.376 15.5525 109.376 14.5697V11.6907H108.556V10.8431H109.376V9.55089L110.397 9.55078ZM112.909 8.82983H113.92V11.6393H114.001C114.136 11.3457 114.36 11.1004 114.642 10.937C114.924 10.7736 115.25 10.6999 115.576 10.726C115.826 10.7125 116.076 10.7537 116.308 10.8466C116.54 10.9395 116.749 11.0818 116.919 11.2633C117.089 11.4449 117.216 11.6612 117.292 11.8968C117.367 12.1325 117.389 12.3817 117.356 12.6266V15.918H116.335V12.8748C116.335 12.0604 115.95 11.6481 115.23 11.6481C115.055 11.6339 114.878 11.6577 114.713 11.7178C114.548 11.7778 114.399 11.8727 114.275 11.9958C114.151 12.1189 114.056 12.2673 113.996 12.4305C113.936 12.5936 113.913 12.7677 113.929 12.9405V15.918H112.909V8.82983ZM123.301 14.5414C123.163 15.0074 122.863 15.4104 122.453 15.68C122.044 15.9497 121.552 16.0687 121.062 16.0164C120.722 16.0252 120.384 15.9609 120.071 15.8279C119.758 15.6948 119.479 15.4962 119.252 15.2458C119.025 14.9955 118.855 14.6994 118.756 14.378C118.656 14.0567 118.629 13.7179 118.676 13.385C118.63 13.0512 118.658 12.7116 118.757 12.3893C118.857 12.067 119.025 11.7695 119.251 11.5169C119.477 11.2643 119.755 11.0626 120.067 10.9254C120.379 10.7882 120.717 10.7186 121.058 10.7215C122.496 10.7215 123.363 11.6907 123.363 13.2915V13.6426H119.714V13.699C119.698 13.8861 119.722 14.0744 119.784 14.2518C119.847 14.4293 119.946 14.592 120.075 14.7295C120.205 14.867 120.362 14.9763 120.537 15.0503C120.712 15.1244 120.9 15.1615 121.091 15.1595C121.334 15.1884 121.582 15.145 121.8 15.035C122.019 14.9249 122.2 14.7531 122.32 14.5414H123.301ZM119.714 12.8985H122.324C122.337 12.7274 122.314 12.5556 122.255 12.394C122.197 12.2324 122.105 12.0847 121.985 11.9603C121.865 11.836 121.72 11.7377 121.56 11.6718C121.399 11.606 121.226 11.574 121.052 11.5779C120.876 11.5757 120.701 11.6084 120.538 11.674C120.374 11.7396 120.226 11.8368 120.101 11.9599C119.976 12.0829 119.878 12.2294 119.812 12.3906C119.745 12.5518 119.712 12.7245 119.714 12.8985Z" fill="white"/>
</g>
</svg>
