<svg width="17" height="17" viewBox="0 0 17 17" fill="none" xmlns="http://www.w3.org/2000/svg">
<g id="Clock-Square">
<g id="Vector">
<path fill-rule="evenodd" clip-rule="evenodd" d="M8.61808 4.95835C8.94408 4.95835 9.20835 5.20872 9.20835 5.51756L9.20835 9.24563C9.20835 9.39395 9.14616 9.53618 9.03546 9.64106L6.67435 11.8779C6.44383 12.0963 6.07009 12.0963 5.83957 11.8779C5.60906 11.6595 5.60906 11.3054 5.83958 11.0871L8.0278 9.014V5.51756C8.0278 5.20872 8.29208 4.95835 8.61808 4.95835Z" fill="#0063A9"/>
<path fill-rule="evenodd" clip-rule="evenodd" d="M8.50002 2.50643C6.96352 2.50643 4.86355 2.64744 3.55228 2.74902C3.12105 2.78243 2.78243 3.12105 2.74902 3.55228C2.64744 4.86355 2.50643 6.96352 2.50643 8.50002C2.50643 10.0365 2.64744 12.1365 2.74902 13.4478C2.78243 13.879 3.12105 14.2176 3.55228 14.251C4.86355 14.3526 6.96352 14.4936 8.50002 14.4936C10.0365 14.4936 12.1365 14.3526 13.4478 14.251C13.879 14.2176 14.2176 13.879 14.251 13.4478C14.3526 12.1365 14.4936 10.0365 14.4936 8.50002C14.4936 6.96352 14.3526 4.86355 14.251 3.55228C14.2176 3.12105 13.879 2.78243 13.4478 2.74902C12.1365 2.64744 10.0365 2.50643 8.50002 2.50643ZM3.46811 1.66254C4.77999 1.5609 6.91723 1.41669 8.50002 1.41669C10.0828 1.41669 12.2201 1.5609 13.5319 1.66254C14.4986 1.73743 15.2626 2.50144 15.3375 3.46811C15.4391 4.77999 15.5834 6.91723 15.5834 8.50002C15.5834 10.0828 15.4391 12.2201 15.3375 13.5319C15.2626 14.4986 14.4986 15.2626 13.5319 15.3375C12.2201 15.4391 10.0828 15.5834 8.50002 15.5834C6.91723 15.5834 4.77999 15.4391 3.46811 15.3375C2.50144 15.2626 1.73743 14.4986 1.66254 13.5319C1.5609 12.2201 1.41669 10.0828 1.41669 8.50002C1.41669 6.91723 1.5609 4.77999 1.66254 3.46811C1.73743 2.50144 2.50144 1.73743 3.46811 1.66254Z" fill="#0063A9"/>
</g>
</g>
</svg>
