<svg width="24" height="24" viewBox="0 0 24 24" fill="none" xmlns="http://www.w3.org/2000/svg">
<g id="Group">
<path id="Vector" d="M24 12.0007C23.9996 9.7075 23.3422 7.46244 22.1056 5.53128C20.8689 3.60013 19.1048 2.06374 17.0221 1.10402C14.9394 0.144306 12.6254 -0.198561 10.3538 0.116016C8.08235 0.430592 5.94854 1.38944 4.20505 2.87904C2.46156 4.36864 1.18139 6.32662 0.516104 8.52117C-0.149185 10.7157 -0.171736 13.055 0.451122 15.2619C1.07398 17.4689 2.31616 19.4512 4.03061 20.9741C5.74506 22.4971 7.85999 23.4969 10.125 23.8552V15.4694H7.0785V12.0007H10.125V9.35693C10.125 6.34943 11.9167 4.68818 14.6572 4.68818C15.5573 4.70066 16.4551 4.77887 17.3438 4.92218V7.87568H15.8302C15.5723 7.84143 15.31 7.86565 15.0628 7.94656C14.8155 8.02746 14.5896 8.16297 14.4018 8.34305C14.214 8.52313 14.0691 8.74315 13.978 8.98682C13.8868 9.23049 13.8516 9.49156 13.875 9.75068V12.0007H17.2035L16.671 15.4694H13.875V23.8552C16.6978 23.4086 19.2686 21.9693 21.1248 19.7961C22.9809 17.6229 24.0005 14.8586 24 12.0007Z" fill="white"/>
</g>
</svg>
