<svg width="118" height="27" viewBox="0 0 118 27" fill="none" xmlns="http://www.w3.org/2000/svg">
<g id="logos:google-play" clip-path="url(#clip0_901_241)">
<path id="Vector" d="M18.9641 18.2287C22.148 16.5037 24.562 15.1894 24.77 15.0873C25.4354 14.738 26.1228 13.8137 24.77 13.0959C24.3332 12.8702 21.9814 11.5966 18.9641 9.95447L14.7814 14.1222L18.9638 18.2287H18.9641Z" fill="#FFD900"/>
<path id="Vector_2" d="M14.7875 14.1216L1.4689 27.3655C1.7813 27.4064 2.13426 27.3246 2.55057 27.0988C3.4242 26.6272 12.685 21.6371 18.9704 18.229L14.7875 14.1216Z" fill="#F43249"/>
<path id="Vector_3" d="M14.7631 14.122L18.9455 9.97448C18.9455 9.97448 3.4629 1.63794 2.52593 1.14604C2.17342 0.939205 1.77785 0.878054 1.42398 0.939205L14.7631 14.1217V14.122Z" fill="#00EE76"/>
<path id="Vector_4" d="M14.7759 14.1238L1.4366 0.941284C0.895202 1.06471 0.437653 1.53661 0.437653 2.50131V25.807C0.437653 26.6905 0.791752 27.3268 1.45711 27.3879L14.7757 14.1236L14.7759 14.1238Z" fill="#00D3FF"/>
<path id="Vector_5" d="M58.2871 10.3516C55.894 10.3516 53.9168 12.1787 53.9168 14.6838C53.9168 17.1686 55.8733 19.0161 58.2873 19.0161C60.7011 19.0161 62.6573 17.189 62.6573 14.6838C62.6573 12.1787 60.7011 10.3516 58.2871 10.3516ZM58.2871 17.2922C56.9757 17.2922 55.8318 16.2036 55.8318 14.6645C55.8318 13.104 56.9766 12.0368 58.2871 12.0368C59.5975 12.0368 60.7423 13.104 60.7423 14.6645C60.7423 16.2036 59.5975 17.2922 58.2871 17.2922ZM48.7766 10.3516C46.3626 10.3516 44.4061 12.1787 44.4061 14.6838C44.4061 17.1686 46.3626 19.0161 48.7766 19.0161C51.1904 19.0161 53.1469 17.189 53.1469 14.6838C53.1469 12.1787 51.1904 10.3516 48.7764 10.3516H48.7766ZM48.7766 17.2922C47.465 17.2922 46.3214 16.2036 46.3214 14.6645C46.3214 13.104 47.4662 12.0368 48.7766 12.0368C50.088 12.0368 51.2319 13.104 51.2319 14.6645C51.2319 16.2036 50.1076 17.2922 48.7766 17.2922ZM37.4763 11.6863V13.5134H41.8878C41.7624 14.54 41.4097 15.2996 40.889 15.8133C40.2442 16.4496 39.2452 17.1481 37.4763 17.1481C34.7496 17.1481 32.6485 14.9718 32.6485 12.2819C32.6485 9.5919 34.7508 7.3745 37.4763 7.3745C38.9533 7.3745 40.0154 7.94959 40.8061 8.68902L42.1165 7.39495C41.0132 6.34819 39.5362 5.54761 37.4763 5.54761C33.7507 5.54761 30.6289 8.56537 30.6289 12.241C30.6289 15.9168 33.7507 18.9345 37.4763 18.9345C39.4947 18.9345 40.9936 18.2778 42.2004 17.0451C43.4281 15.8338 43.8028 14.1292 43.8028 12.7538C43.8028 12.3228 43.7615 11.9325 43.6984 11.6038L37.4763 11.6863ZM83.7178 13.1029C83.3637 12.1378 82.2406 10.3516 79.9922 10.3516C77.7441 10.3516 75.8922 12.0971 75.8922 14.6838C75.8922 17.1063 77.7441 19.0161 80.2005 19.0161C82.1982 19.0161 83.343 17.8048 83.8213 17.1063L82.3442 16.1209C81.8443 16.8399 81.1787 17.3115 80.2005 17.3115C79.2222 17.3115 78.5359 16.8806 78.0982 15.9972L83.9042 13.5953L83.7178 13.1029ZM77.8072 14.5613C77.766 12.8977 79.1188 12.0357 80.0752 12.0357C80.8453 12.0357 81.4697 12.4053 81.6982 12.9599L77.8072 14.5613ZM73.0831 18.729H74.9981V6.03974H73.0831V18.729ZM69.9622 11.3167H69.9C69.4632 10.803 68.6518 10.3516 67.6104 10.3516C65.4252 10.3516 63.4482 12.2614 63.4482 14.6838C63.4482 17.1063 65.4459 18.9959 67.6104 18.9959C68.6506 18.9959 69.4623 18.5442 69.9 18.0101H69.9622V18.6261C69.9622 20.2897 69.0667 21.1719 67.6312 21.1719C66.4656 21.1719 65.7369 20.3304 65.4459 19.6319L63.7816 20.3304C64.2597 21.4804 65.5298 22.897 67.6312 22.897C69.8784 22.897 71.7726 21.5827 71.7726 18.4004V10.6182H69.9622V11.3167ZM67.777 17.2922C66.4656 17.2922 65.3632 16.2036 65.3632 14.685C65.3632 13.1663 66.4665 12.0571 67.777 12.0571C69.0679 12.0571 70.1081 13.1663 70.1081 14.685C70.1072 16.1832 69.0667 17.2922 67.777 17.2922ZM92.6456 6.03996H88.0673V18.729H89.9823V13.924H92.6456C94.7686 13.924 96.8493 12.4042 96.8493 9.98196C96.8493 7.55952 94.7686 6.03974 92.6456 6.03974V6.03996ZM92.7076 12.1593H90.0019V7.80548H92.7076C94.1226 7.80548 94.955 8.97589 94.955 9.98173C94.9352 10.9673 94.1238 12.1593 92.7076 12.1593ZM104.487 10.3311C103.114 10.3311 101.678 10.9267 101.095 12.2819L102.781 12.9804C103.156 12.2819 103.822 12.0562 104.53 12.0562C105.529 12.0562 106.527 12.6515 106.548 13.6982V13.8219C106.194 13.6166 105.466 13.3286 104.55 13.3286C102.719 13.3286 100.866 14.3347 100.866 16.1832C100.866 17.8875 102.365 18.9754 104.03 18.9754C105.32 18.9754 106.028 18.4004 106.464 17.7232H106.527V18.7088H108.378V13.8421C108.358 11.6045 106.672 10.3309 104.487 10.3309V10.3311ZM104.259 17.2718C103.634 17.2718 102.76 16.9633 102.76 16.2045C102.76 15.2189 103.841 14.8493 104.778 14.8493C105.61 14.8493 106.006 15.0341 106.527 15.2803C106.381 16.4507 105.361 17.2718 104.259 17.2718ZM115.059 10.6193L112.874 16.1013H112.812L110.544 10.6191H108.484L111.896 18.2981L109.961 22.5896H111.958L117.182 10.6191H115.059L115.059 10.6193ZM97.9111 18.729H99.8261V6.03974H97.9111V18.729Z" fill="white"/>
</g>
<defs>
<clipPath id="clip0_901_241">
<rect width="116.667" height="26.0746" fill="white" transform="translate(0.437653 0.731812)"/>
</clipPath>
</defs>
</svg>
