<svg width="26" height="26" viewBox="0 0 26 26" fill="none" xmlns="http://www.w3.org/2000/svg">
<g id="Frame 427322728">
<rect x="0.387817" y="0.728088" width="24.8737" height="24.8737" rx="4.14562" fill="white" fill-opacity="0.5"/>
<g id="Heart">
<path id="Path_33961" fill-rule="evenodd" clip-rule="evenodd" d="M12.7175 20.8781C10.9087 19.7649 9.22594 18.4547 7.69942 16.971C6.62621 15.9025 5.80919 14.5998 5.31093 13.1628C4.4143 10.3753 5.46162 7.18402 8.39261 6.2396C9.93303 5.7437 11.6154 6.02713 12.9134 7.00123C14.212 6.02831 15.8937 5.74498 17.4342 6.2396C20.3652 7.18402 21.4201 10.3753 20.5235 13.1628C20.0252 14.5998 19.2082 15.9025 18.135 16.971C16.6084 18.4547 14.9257 19.7649 13.1169 20.8781L12.921 21L12.7175 20.8781Z" fill="#174261" stroke="#174261" stroke-width="1.25" stroke-linecap="round" stroke-linejoin="round"/>
<g id="Path_33964">
<path fill-rule="evenodd" clip-rule="evenodd" d="M16.0328 9.3775C16.9205 9.66109 17.5513 10.4581 17.6301 11.3958L16.0328 9.3775Z" fill="white"/>
<path d="M16.0328 9.3775C16.9205 9.66109 17.5513 10.4581 17.6301 11.3958" stroke="#174261" stroke-width="1.25" stroke-linecap="round" stroke-linejoin="round"/>
</g>
</g>
</g>
</svg>
