<svg width="18" height="18" viewBox="0 0 18 18" fill="none" xmlns="http://www.w3.org/2000/svg">
<g id="heart">
<path id="shape" fill-rule="evenodd" clip-rule="evenodd" d="M4.44994 3.03671C3.07748 3.56439 1.98435 4.87152 1.98435 6.60341C1.98435 7.97338 2.6019 9.2867 3.59087 10.5546C4.58003 11.8227 5.89993 12.9935 7.21833 14.0724C7.75517 14.5118 8.11375 14.8038 8.41243 14.9926C8.69657 15.1722 8.86071 15.2146 9 15.2146C9.1393 15.2146 9.30344 15.1722 9.58757 14.9926C9.88626 14.8038 10.2448 14.5118 10.7817 14.0724C12.1001 12.9935 13.42 11.8227 14.4091 10.5546C15.3981 9.2867 16.0157 7.97338 16.0157 6.60341C16.0157 4.87152 14.9225 3.56439 13.5501 3.03671C12.1901 2.51383 10.5901 2.76522 9.50662 4.1508C9.38595 4.30512 9.19865 4.39564 9 4.39564C8.80136 4.39564 8.61406 4.30512 8.49339 4.1508C7.40994 2.76522 5.80992 2.51383 4.44994 3.03671ZM9.00001 2.83211C7.55722 1.4534 5.61244 1.24926 3.98326 1.87564C2.16679 2.57404 0.708771 4.31395 0.708771 6.60341C0.708771 8.35143 1.49713 9.92722 2.57673 11.3113C3.65615 12.6951 5.06749 13.9389 6.39976 15.0292L6.42995 15.0539C6.92862 15.4621 7.34731 15.8047 7.71997 16.0403C8.11469 16.2899 8.5216 16.4621 9 16.4621C9.47841 16.4621 9.88532 16.2899 10.28 16.0403C10.6527 15.8047 11.0714 15.4621 11.5701 15.0539L11.6003 15.0292C12.9325 13.9389 14.3439 12.6951 15.4233 11.3113C16.5029 9.92722 17.2912 8.35143 17.2912 6.60341C17.2912 4.31395 15.8332 2.57404 14.0167 1.87564C12.3876 1.24926 10.4428 1.4534 9.00001 2.83211Z" fill="#717171"/>
</g>
</svg>
