<svg width="168" height="112" viewBox="0 0 168 112" fill="none" xmlns="http://www.w3.org/2000/svg">
<g id="illustration">
<g id="freepik--background-simple--inject-26">
<path id="Vector" d="M158.547 110.715C158.547 110.715 165.092 97.0239 164.849 74.6707C164.607 52.3175 152.971 31.3613 138.669 25.4936C124.367 19.6259 111.761 27.1701 94.7923 28.0083C77.8235 28.8466 67.8846 4.25803 43.6435 15.9935C19.4023 27.7289 19.4023 51.4792 23.5233 62.9352C27.6443 74.3913 35.4015 79.9796 26.9171 88.0826C18.4327 96.1857 10.1907 101.215 7.76656 104.289C6.33351 106.07 5.40364 108.311 5.10004 110.715H158.547Z" fill="#0B71BB"/>
<path id="Vector_2" opacity="0.7" d="M158.547 110.715C158.547 110.715 165.092 97.0239 164.849 74.6707C164.607 52.3175 152.971 31.3613 138.669 25.4936C124.367 19.6259 111.761 27.1701 94.7923 28.0083C77.8235 28.8466 67.8846 4.25803 43.6435 15.9935C19.4023 27.7289 19.4023 51.4792 23.5233 62.9352C27.6443 74.3913 35.4015 79.9796 26.9171 88.0826C18.4327 96.1857 10.1907 101.215 7.76656 104.289C6.33351 106.07 5.40364 108.311 5.10004 110.715H158.547Z" fill="white"/>
</g>
<g id="freepik--Coins--inject-26">
<g id="Group" opacity="0.2">
<path id="Vector_3" d="M51.8859 12.1142C50.7127 12.1153 49.566 12.5173 48.5909 13.2693C47.6157 14.0214 46.8559 15.0897 46.4073 16.3393C45.9588 17.589 45.8417 18.9638 46.0708 20.2901C46.2999 21.6165 46.865 22.8347 47.6946 23.791C48.5243 24.7473 49.5812 25.3986 50.7319 25.6627C51.8825 25.9268 53.0753 25.7918 54.1595 25.2748C55.2436 24.7578 56.1705 23.882 56.8229 22.758C57.4753 21.634 57.824 20.3123 57.825 18.9599C57.825 17.1443 57.1993 15.4031 56.0855 14.1193C54.9717 12.8355 53.4611 12.1142 51.8859 12.1142ZM52.4895 23.1316V23.791H51.4835V23.1316C50.5987 22.9276 50.1527 22.1397 50.1527 20.9158V20.2983H51.3163V21.0052C51.3163 21.6507 51.5587 21.8826 51.9538 21.8826C52.3489 21.8826 52.5913 21.6507 52.5913 21.0052C52.5913 19.1499 50.1866 19.0493 50.1866 16.4815C50.1866 15.2688 50.623 14.4977 51.4835 14.2769V13.6063H52.4895V14.2769C53.3622 14.4837 53.8082 15.2577 53.8082 16.4815V16.7609H52.6471V16.3921C52.6471 15.7466 52.4217 15.5008 52.0314 15.5008C51.6411 15.5008 51.4156 15.7466 51.4156 16.3921C51.4156 18.2474 53.8204 18.348 53.8204 20.9158C53.8252 22.1397 53.3671 22.9276 52.4944 23.1316H52.4895Z" stroke="black" stroke-width="1.10658" stroke-linecap="round" stroke-linejoin="round"/>
<path id="Vector_4" d="M51.8853 9.36475C50.2401 9.36419 48.6317 9.92605 47.2636 10.9792C45.8955 12.0324 44.8291 13.5297 44.1993 15.2815C43.5695 17.0334 43.4046 18.9612 43.7254 20.8211C44.0463 22.681 44.8384 24.3895 46.0018 25.7304C47.1651 27.0713 48.6473 27.9844 50.2609 28.3542C51.8745 28.724 53.547 28.5339 55.0668 27.808C56.5867 27.082 57.8856 25.8528 58.7993 24.2759C59.713 22.6989 60.2005 20.845 60.2 18.9487C60.2 16.4069 59.324 13.9692 57.7647 12.1718C56.2054 10.3745 54.0905 9.36475 51.8853 9.36475ZM51.8853 26.8226C50.5341 26.8215 49.2136 26.3586 48.0907 25.4923C46.9678 24.6261 46.093 23.3955 45.5769 21.9561C45.0608 20.5168 44.9267 18.9333 45.1914 17.4061C45.4561 15.8788 46.1078 14.4764 47.0641 13.3761C48.0204 12.2758 49.2382 11.5271 50.5637 11.2246C51.8892 10.9222 53.2627 11.0797 54.5105 11.6771C55.7583 12.2745 56.8244 13.285 57.5739 14.5809C58.3234 15.8767 58.7227 17.3997 58.7213 18.9571C58.7175 21.0442 57.9956 23.0444 56.7141 24.5189C55.4326 25.9934 53.696 26.8219 51.8853 26.8226Z" stroke="black" stroke-width="1.10658" stroke-linecap="round" stroke-linejoin="round"/>
</g>
<g id="Group_2" opacity="0.2">
<path id="Vector_5" d="M101.314 13.3492C100.455 13.3492 99.6156 13.6427 98.9016 14.1926C98.1876 14.7425 97.6311 15.5241 97.3025 16.4385C96.9739 17.3529 96.888 18.3591 97.0555 19.3299C97.223 20.3006 97.6365 21.1923 98.2437 21.8922C98.8509 22.592 99.6245 23.0687 100.467 23.2618C101.309 23.4548 102.182 23.3557 102.975 22.977C103.768 22.5982 104.446 21.9568 104.924 21.1338C105.401 20.3109 105.655 19.3433 105.655 18.3536C105.654 17.0268 105.196 15.7548 104.382 14.8166C103.568 13.8784 102.465 13.3507 101.314 13.3492ZM101.755 21.4132V21.8938H101.028V21.4132C100.38 21.2623 100.058 20.6867 100.058 19.7898V19.3371H100.909V19.8568C100.909 20.329 101.091 20.4967 101.377 20.4967C101.663 20.4967 101.842 20.329 101.842 19.8568C101.842 18.4989 100.082 18.4318 100.082 16.5458C100.082 15.66 100.402 15.0928 101.032 14.9335V14.4418H101.76V14.9335C102.397 15.0844 102.729 15.6488 102.729 16.5458V16.7525H101.878V16.4731C101.878 16.0037 101.716 15.8221 101.428 15.8221C101.139 15.8221 100.979 16.0037 100.979 16.4731C100.979 17.8311 102.739 17.8981 102.739 19.7842C102.729 20.6867 102.392 21.2623 101.755 21.4132Z" stroke="black" stroke-width="1.10658" stroke-linecap="round" stroke-linejoin="round"/>
<path id="Vector_6" d="M101.314 11.3398C100.11 11.3398 98.9338 11.7511 97.9332 12.5218C96.9326 13.2924 96.1527 14.3877 95.6922 15.6693C95.2316 16.9508 95.1112 18.3609 95.3459 19.7214C95.5807 21.0818 96.1602 22.3315 97.0111 23.3123C97.8621 24.2931 98.9462 24.9611 100.127 25.2317C101.307 25.5023 102.53 25.3634 103.642 24.8326C104.754 24.3018 105.704 23.4029 106.373 22.2495C107.041 21.0962 107.398 19.7402 107.398 18.3531C107.398 16.4931 106.757 14.7092 105.616 13.394C104.475 12.0787 102.927 11.3398 101.314 11.3398ZM101.314 24.1147C100.325 24.1147 99.3585 23.7768 98.5365 23.1437C97.7145 22.5106 97.0738 21.6108 96.6955 20.558C96.3172 19.5052 96.2182 18.3468 96.4111 17.2291C96.6039 16.1115 97.08 15.0849 97.7791 14.2791C98.4781 13.4733 99.3688 12.9246 100.338 12.7023C101.308 12.48 102.313 12.5941 103.226 13.0302C104.14 13.4662 104.92 14.2047 105.47 15.1522C106.019 16.0997 106.312 17.2136 106.312 18.3531C106.311 19.8807 105.784 21.3454 104.847 22.4255C103.909 23.5057 102.639 24.1132 101.314 24.1147Z" stroke="black" stroke-width="1.10658" stroke-linecap="round" stroke-linejoin="round"/>
</g>
<g id="Group_3" opacity="0.2">
<path id="Vector_7" d="M10.6436 57.7182C9.78492 57.7182 8.94552 58.0117 8.23155 58.5616C7.51758 59.1115 6.96111 59.8931 6.6325 60.8075C6.3039 61.7219 6.21792 62.7281 6.38544 63.6989C6.55296 64.6696 6.96646 65.5613 7.57364 66.2611C8.18083 66.961 8.95442 67.4376 9.79661 67.6307C10.6388 67.8238 11.5117 67.7247 12.3051 67.346C13.0984 66.9672 13.7764 66.3258 14.2535 65.5028C14.7306 64.6799 14.9852 63.7123 14.9852 62.7226C14.9839 61.3958 14.5261 60.1238 13.7122 59.1856C12.8982 58.2474 11.7947 57.7197 10.6436 57.7182ZM11.0848 65.7822V66.2628H10.3576V65.7822C9.71033 65.6313 9.38792 65.0557 9.38792 64.1588V63.7061H10.2388V64.2258C10.2388 64.698 10.4182 64.8685 10.7066 64.8685C10.9951 64.8685 11.1575 64.698 11.1575 64.2258C11.1575 62.8679 9.39761 62.8008 9.39761 60.9147C9.39761 60.029 9.7176 59.4618 10.3479 59.3025V58.8107H11.0751V59.3025C11.7126 59.4534 12.0447 60.0178 12.0447 60.9147V61.1215H11.1987V60.8421C11.1987 60.3727 11.0339 60.1938 10.7478 60.1938C10.4618 60.1938 10.2994 60.3727 10.2994 60.8421C10.2994 62.2028 12.0569 62.2671 12.0569 64.1532C12.0569 65.0641 11.7223 65.6229 11.0848 65.7822Z" stroke="black" stroke-width="1.10658" stroke-linecap="round" stroke-linejoin="round"/>
<path id="Vector_8" d="M10.6447 55.7059C9.44153 55.707 8.26562 56.1192 7.26567 56.8905C6.26571 57.6618 5.48659 58.7576 5.02681 60.0392C4.56703 61.3208 4.44723 62.7308 4.68255 64.0909C4.91787 65.4509 5.49775 66.7001 6.34888 67.6803C7.20001 68.6606 8.28417 69.328 9.46432 69.5982C10.6445 69.8683 11.8676 69.7291 12.9791 69.1981C14.0907 68.6671 15.0406 67.7682 15.709 66.615C16.3774 65.4618 16.7341 64.1061 16.7341 62.7192C16.7338 61.7978 16.576 60.8855 16.2698 60.0345C15.9636 59.1834 15.515 58.4101 14.9496 57.7589C14.3841 57.1076 13.7129 56.5911 12.9743 56.2389C12.2357 55.8866 11.4441 55.7055 10.6447 55.7059ZM10.6447 68.4807C9.65611 68.4807 8.6897 68.1428 7.8677 67.5097C7.04569 66.8767 6.40502 65.9768 6.02669 64.924C5.64837 63.8713 5.54938 62.7128 5.74225 61.5952C5.93512 60.4775 6.41118 59.4509 7.11024 58.6452C7.80929 57.8394 8.69994 57.2907 9.66956 57.0684C10.6392 56.846 11.6442 56.9601 12.5576 57.3962C13.4709 57.8323 14.2516 58.5708 14.8008 59.5182C15.3501 60.4657 15.6433 61.5797 15.6433 62.7192C15.642 64.2468 15.1149 65.7114 14.1778 66.7916C13.2407 67.8718 11.97 68.4793 10.6447 68.4807Z" stroke="black" stroke-width="1.10658" stroke-linecap="round" stroke-linejoin="round"/>
</g>
<g id="Group_4" opacity="0.2">
<path id="Vector_9" d="M158.408 52.1521C157.55 52.1521 156.71 52.4456 155.996 52.9955C155.282 53.5454 154.726 54.3269 154.397 55.2414C154.069 56.1558 153.983 57.162 154.15 58.1327C154.318 59.1035 154.731 59.9952 155.338 60.695C155.946 61.3949 156.719 61.8715 157.561 62.0646C158.403 62.2577 159.276 62.1586 160.07 61.7798C160.863 61.4011 161.541 60.7597 162.018 59.9367C162.495 59.1137 162.75 58.1462 162.75 57.1564C162.749 55.8297 162.291 54.5577 161.477 53.6195C160.663 52.6813 159.559 52.1536 158.408 52.1521ZM158.849 60.216V60.6966H158.122V60.216C157.477 60.0652 157.153 59.4896 157.153 58.5926V58.14H158.003V58.6597C158.003 59.1291 158.183 59.2996 158.469 59.2996C158.755 59.2996 158.934 59.1291 158.934 58.6597C158.934 57.2989 157.177 57.2347 157.177 55.3486C157.177 54.4601 157.494 53.8957 158.125 53.7336V53.2446H158.852V53.7336C159.489 53.8845 159.822 54.4517 159.822 55.3486V55.561H158.971V55.2816C158.971 54.8094 158.808 54.6305 158.522 54.6305C158.236 54.6305 158.064 54.8094 158.064 55.2816C158.064 56.6395 159.824 56.7066 159.824 58.5926C159.824 59.4896 159.487 60.0652 158.849 60.216Z" stroke="black" stroke-width="1.10658" stroke-linecap="round" stroke-linejoin="round"/>
<path id="Vector_10" d="M158.408 50.1427C157.205 50.1427 156.028 50.554 155.028 51.3247C154.027 52.0953 153.247 53.1906 152.787 54.4721C152.326 55.7537 152.206 57.1638 152.441 58.5243C152.675 59.8847 153.255 61.1344 154.106 62.1152C154.957 63.096 156.041 63.764 157.221 64.0346C158.401 64.3052 159.625 64.1663 160.737 63.6355C161.848 63.1047 162.799 62.2058 163.467 61.0524C164.136 59.8991 164.493 58.5431 164.493 57.156C164.493 56.235 164.335 55.323 164.03 54.4721C163.724 53.6212 163.276 52.8481 162.711 52.1969C162.146 51.5456 161.475 51.029 160.737 50.6766C159.998 50.3241 159.207 50.1427 158.408 50.1427ZM158.408 62.9176C157.419 62.9198 156.452 62.5838 155.628 61.952C154.805 61.3203 154.163 60.4212 153.783 59.3686C153.403 58.316 153.303 57.1572 153.495 56.0389C153.687 54.9205 154.162 53.8929 154.861 53.086C155.559 52.2791 156.45 51.7292 157.42 51.506C158.39 51.2828 159.395 51.3962 160.309 51.832C161.223 52.2677 162.004 53.0062 162.554 53.9539C163.104 54.9017 163.397 56.016 163.397 57.156C163.396 58.6817 162.87 60.1446 161.935 61.2245C161 62.3043 159.732 62.9131 158.408 62.9176Z" stroke="black" stroke-width="1.10658" stroke-linecap="round" stroke-linejoin="round"/>
</g>
</g>
<g id="freepik--Floor--inject-26">
<path id="Vector_11" d="M0.735245 110.857H162.181" stroke="#263238" stroke-width="1.10658" stroke-linecap="round" stroke-linejoin="round"/>
</g>
<g id="freepik--Plants--inject-26">
<path id="Vector_12" d="M10.3514 86.2963C11.0786 86.6567 12.8216 86.6092 12.824 86.6092C12.8264 86.6092 12.4458 85.2876 12.4119 85.2122C12.0289 84.2845 10.812 82.7533 9.82051 82.907C9.65692 82.9381 9.50083 83.0085 9.36237 83.1137C9.22392 83.2188 9.10618 83.3564 9.01681 83.5173C8.92744 83.6783 8.86842 83.8591 8.84359 84.0481C8.81876 84.2371 8.82867 84.4299 8.87268 84.6142C9.03752 85.3854 9.74051 85.9722 10.3514 86.2963Z" fill="#0B71BB"/>
<path id="Vector_13" d="M10.96 92.1325C11.7018 92.2555 13.2678 91.733 13.3842 91.6911C13.6419 92.7231 13.9594 93.734 14.3344 94.7171C14.5477 95.2927 14.7805 95.8627 15.0204 96.4327C14.8774 96.1924 14.7489 95.9773 14.7271 95.9493C14.1429 95.1726 12.6206 94.0633 11.6994 94.5159C11.5486 94.5954 11.4141 94.7105 11.3045 94.8539C11.1949 94.9973 11.1127 95.1657 11.0633 95.3481C11.0139 95.5305 10.9984 95.7228 11.0178 95.9126C11.0372 96.1024 11.091 96.2853 11.1758 96.4495C11.5152 97.162 12.3297 97.5141 12.989 97.6258C13.6484 97.7376 14.9986 97.3241 15.3525 97.2067L15.6337 97.8605C16.0871 98.9 16.5428 99.9338 16.9622 100.968C17.11 101.331 17.2458 101.694 17.3815 102.057C17.2531 101.845 17.1391 101.666 17.1391 101.641C16.5549 100.861 15.0301 99.755 14.1114 100.205C13.9599 100.284 13.8246 100.399 13.7142 100.542C13.6039 100.685 13.5209 100.854 13.4708 101.036C13.4208 101.219 13.4046 101.412 13.4235 101.602C13.4424 101.793 13.4959 101.976 13.5805 102.141C13.9199 102.854 14.732 103.206 15.3913 103.318C16.0507 103.429 17.2724 103.052 17.6942 102.918C17.8227 103.295 17.9512 103.675 18.0627 104.036C18.133 104.293 18.2154 104.533 18.2736 104.796C18.3318 105.058 18.3997 105.307 18.4603 105.561C18.5621 106.053 18.6712 106.559 18.7609 107.042C18.8239 107.377 18.8796 107.699 18.9378 108.02C18.7948 107.657 18.499 106.953 18.4675 106.902C17.9827 106.031 16.6325 104.667 15.6653 104.947C15.5056 104.999 15.3574 105.089 15.2301 105.212C15.1028 105.335 14.9993 105.487 14.9264 105.659C14.8534 105.831 14.8127 106.018 14.8068 106.209C14.8008 106.4 14.8299 106.591 14.892 106.768C15.1344 107.531 15.8931 108.023 16.5282 108.246C17.2312 108.495 18.7827 108.269 18.9766 108.246C19.0711 108.783 19.156 109.303 19.219 109.797C19.2748 110.163 19.3257 110.512 19.3717 110.851H19.9947C19.9365 110.473 19.8711 110.082 19.8008 109.671C19.7087 109.127 19.5996 108.554 19.4832 107.956C19.9511 107.74 20.4076 107.493 20.8504 107.215C21.3619 107.855 22.6709 108.612 22.8406 108.696C22.6637 109.202 22.4843 109.691 22.3098 110.149C22.2201 110.392 22.1304 110.621 22.0407 110.851H22.7L22.8552 110.415C23.0394 109.903 23.2261 109.35 23.4127 108.783C23.5994 108.828 25.1387 109.188 25.8538 109.001C26.5035 108.833 27.2913 108.408 27.5822 107.668C27.6553 107.496 27.6963 107.309 27.7026 107.118C27.709 106.927 27.6805 106.737 27.6191 106.559C27.5576 106.382 27.4645 106.221 27.3459 106.088C27.2272 105.954 27.0856 105.851 26.9301 105.785C25.9823 105.419 24.5375 106.657 24.0212 107.484C23.9897 107.534 23.7012 108.107 23.5242 108.473C23.5994 108.238 23.6745 108.015 23.7497 107.774C23.9024 107.299 24.0406 106.819 24.1909 106.304C24.2563 106.053 24.3218 105.799 24.3896 105.544C24.4575 105.29 24.506 105.014 24.5666 104.745C24.6951 104.122 24.809 103.482 24.8914 102.837C25.2526 102.988 26.5423 103.505 27.2089 103.452C27.8755 103.399 28.707 103.116 29.0924 102.435C29.1879 102.278 29.2537 102.1 29.2855 101.912C29.3172 101.724 29.3142 101.531 29.2767 101.344C29.2392 101.158 29.168 100.983 29.0677 100.83C28.9675 100.678 28.8404 100.551 28.6949 100.459C27.8076 99.931 26.215 100.906 25.5847 101.63C25.5435 101.675 25.1411 102.256 24.9254 102.577C24.9787 102.189 25.032 101.8 25.0757 101.406C25.1993 100.264 25.2914 99.1039 25.3908 97.9472C25.4199 97.5923 25.4538 97.2402 25.4853 96.8882C25.6138 96.9413 27.1337 97.5951 27.8828 97.5336C28.547 97.4805 29.3809 97.1983 29.7639 96.5166C29.8594 96.3602 29.9251 96.1824 29.9569 95.9948C29.9886 95.8071 29.9856 95.6139 29.9481 95.4277C29.9105 95.2415 29.8393 95.0665 29.7391 94.9142C29.6388 94.7619 29.5118 94.6357 29.3664 94.5439C28.4791 94.0158 26.8889 94.9882 26.2562 95.7118C26.2077 95.7677 25.6284 96.6032 25.4902 96.8295C25.5629 96.0527 25.6405 95.2787 25.7326 94.5187C25.867 93.4919 26.0597 92.4764 26.3095 91.4787C26.3677 91.5038 27.9531 92.194 28.7191 92.1325C29.3833 92.0766 30.2172 91.7972 30.6027 91.1155C30.6978 90.9588 30.7632 90.7807 30.7948 90.593C30.8263 90.4052 30.8233 90.2119 30.7858 90.0256C30.7483 89.8393 30.6772 89.6642 30.5772 89.5116C30.4771 89.359 30.3504 89.2324 30.2051 89.14C29.3154 88.6119 27.7252 89.5843 27.0925 90.3107C27.0441 90.3666 26.4211 91.2663 26.3192 91.4284C26.3338 91.3697 26.3435 91.3082 26.358 91.2524C26.6313 90.2591 26.9809 89.296 27.4028 88.3744C27.6307 87.8631 27.8731 87.388 28.1301 86.9298C28.4137 87.0947 29.7154 87.8239 30.4111 87.8547C31.1069 87.8854 31.9311 87.7122 32.3795 87.0835C32.4892 86.9398 32.5713 86.7712 32.6207 86.5885C32.6701 86.4059 32.6856 86.2133 32.6661 86.0233C32.6467 85.8332 32.5928 85.6501 32.5079 85.4856C32.423 85.3212 32.3091 85.1792 32.1735 85.0689C31.3396 84.4318 29.6669 85.1974 28.9688 85.8401C28.93 85.8736 28.5785 86.2788 28.3264 86.575C28.4403 86.371 28.5519 86.1586 28.6634 85.9658C29.0827 85.2421 29.5045 84.6051 29.8754 84.049C30.0936 83.7333 30.2948 83.4511 30.4839 83.1912C30.8354 83.1912 32.2486 83.1353 32.8668 82.8C33.4849 82.4647 34.1588 81.8668 34.3067 81.0705C34.3463 80.8848 34.3516 80.6916 34.3222 80.5035C34.2928 80.3153 34.2294 80.1364 34.1361 79.9783C34.0429 79.8202 33.9218 79.6865 33.7808 79.5858C33.6398 79.4851 33.482 79.4198 33.3177 79.394C32.3238 79.2682 31.136 80.8385 30.782 81.7774C30.7505 81.8584 30.3845 83.194 30.4039 83.194H30.4257C30.2366 83.4427 30.0378 83.7081 29.8245 84.0043C29.4367 84.5632 29.0027 85.1807 28.5688 85.896C28.0961 86.6643 27.6614 87.4628 27.2671 88.2878C26.8222 89.2107 26.4498 90.1776 26.1544 91.1769C26.1555 91.189 26.1555 91.2012 26.1544 91.2132C26.1544 90.8752 26.1544 89.9307 26.1399 89.8581C26.0235 88.841 25.2841 86.9466 24.3 86.737C24.136 86.7073 23.9684 86.7179 23.8082 86.7679C23.648 86.8179 23.4987 86.9064 23.3702 87.0274C23.2416 87.1484 23.1366 87.2993 23.0621 87.4703C22.9876 87.6413 22.9451 87.8284 22.9376 88.0195C22.8794 88.8298 23.3885 89.6401 23.8854 90.1515C24.4454 90.7299 26.0017 91.2887 26.1253 91.3306C25.8473 92.3561 25.6278 93.4015 25.4684 94.4601C25.3738 95.0748 25.2938 95.7007 25.226 96.3266C25.226 96.0332 25.226 95.7677 25.2138 95.737C25.0975 94.7171 24.3557 92.8255 23.3739 92.6159C23.21 92.5863 23.0424 92.5968 22.8822 92.6468C22.722 92.6969 22.5727 92.7853 22.4441 92.9063C22.3156 93.0273 22.2106 93.1782 22.1361 93.3492C22.0615 93.5201 22.0191 93.7073 22.0116 93.8984C21.9534 94.7059 22.4625 95.519 22.9594 96.0304C23.4564 96.5417 24.7824 97.0558 25.1411 97.1844C25.1169 97.4247 25.0878 97.665 25.0635 97.9053C24.9423 99.062 24.8211 100.216 24.6854 101.342C24.6345 101.742 24.5739 102.13 24.5109 102.518C24.5109 102.261 24.5109 102.041 24.5109 102.01C24.3969 100.99 23.6551 99.0956 22.6734 98.886C22.5094 98.8568 22.342 98.8676 22.182 98.9179C22.0219 98.9681 21.8728 99.0565 21.7443 99.1775C21.6159 99.2984 21.5109 99.4491 21.4362 99.6199C21.3616 99.7906 21.3189 99.9775 21.311 100.169C21.2528 100.979 21.7619 101.789 22.2589 102.3C22.7558 102.812 23.9557 103.278 24.3678 103.432C24.2951 103.829 24.2224 104.228 24.1254 104.608C24.06 104.865 24.0139 105.12 23.9388 105.377C23.8636 105.634 23.7957 105.883 23.7254 106.134C23.5751 106.609 23.4248 107.101 23.2673 107.559C23.1606 107.88 23.054 108.185 22.9473 108.49C23.0006 108.096 23.0927 107.319 23.0952 107.252C23.0822 106.348 22.8703 105.462 22.4794 104.678C22.4823 104.577 22.4766 104.476 22.4625 104.377C22.442 104.186 22.3866 104.002 22.3001 103.838C22.2135 103.673 22.0977 103.532 21.9602 103.423C21.8228 103.314 21.6669 103.24 21.5027 103.205C21.3386 103.17 21.17 103.176 21.008 103.223C20.0384 103.519 19.4299 105.458 19.3838 106.497C19.3838 106.559 19.4154 107.218 19.442 107.637C19.3935 107.394 19.3499 107.159 19.2966 106.911C19.1948 106.419 19.0833 105.93 18.9621 105.405C18.8966 105.153 18.8287 104.899 18.7609 104.645C18.693 104.39 18.6057 104.128 18.5184 103.865C18.3269 103.264 18.1088 102.664 17.876 102.066C18.2518 101.962 19.5729 101.574 20.1038 101.105C20.6347 100.635 21.1922 99.8723 21.1874 99.0592C21.1924 98.868 21.1623 98.6776 21.0991 98.5007C21.0359 98.3237 20.9411 98.1641 20.8207 98.0322C20.7004 97.9004 20.5573 97.7993 20.4008 97.7355C20.2442 97.6717 20.0778 97.6467 19.9123 97.6622C18.9184 97.7879 18.0554 99.6181 17.876 100.618C17.876 100.68 17.8057 101.42 17.7815 101.825C17.6385 101.468 17.4979 101.11 17.3452 100.752C16.9016 99.7215 16.424 98.696 15.9513 97.6789C15.8083 97.366 15.6653 97.0502 15.5247 96.7345C15.658 96.701 17.2385 96.2763 17.8324 95.751C18.3609 95.2843 18.9208 94.5187 18.916 93.7056C18.921 93.5144 18.8909 93.324 18.8277 93.1471C18.7645 92.9701 18.6697 92.8105 18.5493 92.6786C18.429 92.5468 18.2859 92.4457 18.1294 92.3819C17.9728 92.3181 17.8064 92.2931 17.6409 92.3086C16.647 92.4315 15.784 94.2645 15.6047 95.262C15.5901 95.3402 15.5077 96.402 15.498 96.6758C15.1853 95.9801 14.8798 95.2787 14.6011 94.5858C14.2241 93.6441 13.9002 92.6753 13.6314 91.6855C13.6944 91.6687 15.3453 91.2356 15.9537 90.6963C16.4822 90.2297 17.0422 89.4641 17.0373 88.651C17.0423 88.4595 17.0122 88.2689 16.9488 88.0917C16.8855 87.9145 16.7904 87.7548 16.6698 87.6229C16.5492 87.491 16.4058 87.3899 16.249 87.3264C16.0922 87.2628 15.9255 87.2381 15.7598 87.2539C14.7683 87.3769 13.9053 89.2098 13.726 90.2074C13.7114 90.2884 13.6217 91.4312 13.6193 91.6408C13.6048 91.5849 13.5829 91.5262 13.5684 91.4675C13.3204 90.4624 13.1509 89.4338 13.0618 88.3939C13.006 87.8211 12.9818 87.2763 12.9672 86.7342C13.2824 86.6895 14.7174 86.4716 15.3113 86.0552C15.9052 85.6389 16.5113 84.9683 16.584 84.1608C16.6073 83.9714 16.5956 83.7784 16.5497 83.5946C16.5037 83.4107 16.4246 83.2401 16.3175 83.094C16.2104 82.9478 16.0777 82.8294 15.9281 82.7465C15.7785 82.6636 15.6154 82.618 15.4495 82.6128C14.4508 82.6128 13.4205 84.3117 13.1442 85.2896C13.1296 85.3455 13.0302 85.9044 12.9624 86.3123C12.9624 86.072 12.9502 85.8205 12.9624 85.5886C12.9624 84.7196 13.0108 83.9121 13.0569 83.2164C13.0884 82.814 13.1199 82.4536 13.1563 82.1155C13.4448 81.8864 14.6108 80.9447 14.955 80.2741C15.2992 79.6035 15.5853 78.6731 15.3259 77.9159C15.2705 77.7355 15.1828 77.5707 15.0684 77.4321C14.954 77.2934 14.8156 77.1842 14.6621 77.1114C14.5086 77.0386 14.3435 77.004 14.1776 77.0097C14.0117 77.0155 13.8487 77.0614 13.6993 77.1447C12.8121 77.6728 12.5794 79.7321 12.7297 80.7463C12.7442 80.8358 13.0787 82.1797 13.0933 82.1686H13.1102C13.0715 82.4927 13.0327 82.842 12.9987 83.222C12.9381 83.9289 12.8751 84.728 12.8557 85.5998C12.8279 86.5419 12.8473 87.4851 12.9139 88.4247C12.9848 89.4768 13.1373 90.5194 13.3696 91.5402V91.5765C13.2121 91.2971 12.749 90.5119 12.7078 90.4588C12.1236 89.6793 10.6013 88.5728 9.68012 89.0226C9.52927 89.1024 9.39467 89.2178 9.28506 89.3614C9.17545 89.5051 9.09328 89.6737 9.0439 89.8563C8.99451 90.0389 8.97902 90.2315 8.99842 90.4214C9.01782 90.6114 9.07168 90.7946 9.15651 90.959C9.48619 91.6687 10.3007 92.0208 10.96 92.1325Z" fill="#0B71BB"/>
<path id="Vector_14" d="M28.0852 86.7228C28.0998 86.7228 28.4028 85.3788 28.4149 85.2894C28.5385 84.2724 28.2549 82.2159 27.3556 81.7213C27.2043 81.6429 27.0404 81.6021 26.8745 81.6016C26.7086 81.6011 26.5445 81.6409 26.3928 81.7184C26.2412 81.7959 26.1054 81.9094 25.9944 82.0514C25.8834 82.1935 25.7995 82.3609 25.7484 82.5428C25.506 83.3056 25.8114 84.2416 26.175 84.8871C26.5992 85.6443 28.0828 86.72 28.0852 86.7228Z" fill="#0B71BB"/>
<path id="Vector_15" d="M131.63 77.88C132.6 78.3634 134.944 78.3019 134.946 78.3019C134.949 78.3019 134.439 76.5276 134.396 76.4215C133.879 75.1753 132.248 73.1216 130.92 73.3283C130.7 73.3692 130.49 73.4632 130.303 73.6041C130.117 73.7449 129.959 73.9295 129.839 74.1458C129.719 74.3621 129.639 74.6051 129.606 74.8591C129.573 75.113 129.587 75.3722 129.647 75.6195C129.868 76.6785 130.811 77.4665 131.63 77.88Z" fill="#0B71BB"/>
<path id="Vector_16" d="M132.445 85.7365C133.441 85.9042 135.541 85.2028 135.708 85.1442C136.054 86.5295 136.48 87.8868 136.983 89.2069C137.271 89.978 137.582 90.7436 137.904 91.5064C137.713 91.1823 137.538 90.8945 137.511 90.8582C136.726 89.816 134.682 88.3295 133.449 88.933C133.246 89.04 133.066 89.195 132.918 89.3877C132.771 89.5804 132.661 89.8067 132.595 90.0517C132.528 90.2968 132.508 90.5552 132.534 90.8102C132.56 91.0651 132.632 91.3109 132.746 91.5316C133.201 92.4872 134.292 92.9594 135.17 93.1075C136.047 93.2556 137.868 92.7023 138.343 92.5487C138.469 92.8421 138.585 93.1326 138.719 93.4232C139.325 94.8203 139.931 96.2174 140.5 97.5921C140.702 98.0811 140.881 98.5701 141.063 99.0563C140.893 98.7768 140.748 98.531 140.721 98.4974C139.938 97.4524 137.894 95.9687 136.661 96.5723C136.458 96.6786 136.277 96.8331 136.13 97.0255C135.982 97.2179 135.872 97.444 135.806 97.689C135.739 97.934 135.719 98.1923 135.745 98.4472C135.771 98.702 135.843 98.9477 135.958 99.168C136.413 100.124 137.504 100.596 138.382 100.747C139.259 100.898 140.903 100.392 141.468 100.213C141.642 100.719 141.817 101.225 141.952 101.725C142.047 102.068 142.158 102.392 142.236 102.745C142.314 103.097 142.403 103.432 142.478 103.773C142.614 104.432 142.76 105.111 142.881 105.759C142.966 106.209 143.041 106.64 143.123 107.073C142.929 106.584 142.534 105.639 142.493 105.564C141.858 104.396 140.03 102.571 138.733 102.951C138.519 103.022 138.32 103.143 138.149 103.308C137.978 103.472 137.84 103.677 137.742 103.907C137.644 104.138 137.589 104.39 137.581 104.646C137.573 104.903 137.612 105.158 137.696 105.396C138.02 106.422 139.036 107.073 139.892 107.38C140.832 107.713 142.917 107.408 143.177 107.38C143.303 108.098 143.419 108.797 143.518 109.459C143.591 109.948 143.661 110.42 143.724 110.873H144.558C144.478 110.37 144.393 109.842 144.299 109.291C144.173 108.562 144.027 107.785 143.872 106.989C144.5 106.7 145.112 106.369 145.705 105.997C146.391 106.852 148.148 107.855 148.371 107.981C148.129 108.66 147.887 109.316 147.661 109.937C147.538 110.264 147.419 110.571 147.298 110.878H148.182C148.25 110.686 148.321 110.496 148.391 110.294C148.633 109.607 148.888 108.867 149.137 108.104C149.38 108.165 151.452 108.649 152.415 108.383C153.288 108.157 154.354 107.587 154.732 106.595C154.83 106.366 154.884 106.115 154.893 105.86C154.901 105.605 154.862 105.35 154.78 105.113C154.697 104.876 154.573 104.662 154.414 104.484C154.255 104.306 154.065 104.168 153.857 104.08C152.587 103.586 150.648 105.251 149.937 106.36C149.896 106.424 149.511 107.198 149.273 107.685C149.375 107.372 149.474 107.07 149.576 106.749C149.78 106.112 149.964 105.469 150.168 104.776L150.432 103.756C150.526 103.415 150.589 103.044 150.674 102.686C150.846 101.848 150.987 100.993 151.111 100.124C151.595 100.328 153.324 101.021 154.218 100.948C155.113 100.875 156.23 100.498 156.747 99.5844C156.874 99.3743 156.962 99.1356 157.005 98.8838C157.047 98.632 157.043 98.3727 156.993 98.1228C156.942 97.873 156.847 97.6381 156.713 97.4336C156.578 97.229 156.408 97.0593 156.213 96.9355C155.021 96.2258 152.888 97.5307 152.039 98.5058C151.986 98.5645 151.445 99.3441 151.154 99.7771C151.227 99.2546 151.3 98.7349 151.356 98.204C151.52 96.67 151.646 95.1165 151.777 93.5629C151.819 93.0879 151.862 92.6157 151.906 92.1407C152.078 92.2162 154.117 93.0907 155.12 93.0097C156.012 92.9371 157.132 92.5598 157.649 91.6462C157.776 91.4358 157.864 91.1969 157.907 90.9449C157.949 90.6929 157.945 90.4334 157.894 90.1833C157.844 89.9333 157.749 89.6982 157.615 89.4934C157.48 89.2886 157.31 89.1186 157.115 88.9945C155.923 88.2876 153.787 89.5924 152.941 90.5648C152.875 90.6403 152.1 91.7579 151.913 92.0541C152.01 91.0119 152.114 89.9725 152.252 88.9526C152.433 87.5751 152.69 86.2124 153.023 84.8731C153.103 84.9066 155.229 85.8315 156.257 85.7505C157.149 85.6778 158.267 85.3006 158.783 84.3841C158.911 84.1741 158.999 83.9354 159.041 83.6835C159.083 83.4317 159.079 83.1725 159.029 82.9226C158.979 82.6728 158.883 82.4379 158.749 82.2333C158.615 82.0288 158.445 81.8591 158.25 81.7353C157.059 81.0256 154.924 82.3332 154.075 83.3056C154.01 83.381 153.174 84.5853 153.035 84.8172C153.057 84.739 153.069 84.658 153.091 84.5797C153.467 83.242 153.947 81.9459 154.524 80.707C154.829 80.0197 155.154 79.3798 155.493 78.7679C155.874 78.9886 157.622 79.9666 158.555 80.0085C159.447 80.0504 160.596 79.8157 161.195 78.9747C161.342 78.7821 161.453 78.5559 161.519 78.3109C161.585 78.0659 161.606 77.8075 161.58 77.5526C161.554 77.2977 161.482 77.052 161.368 76.8314C161.254 76.6109 161.101 76.4205 160.919 76.2727C159.801 75.4177 157.554 76.4459 156.618 77.3038C156.567 77.3513 156.097 77.8933 155.758 78.2929C155.91 78.0135 156.061 77.734 156.211 77.4742C156.773 76.5018 157.338 75.6496 157.845 74.9008C158.133 74.4761 158.405 74.1016 158.662 73.7524C159.132 73.7524 161.028 73.6769 161.857 73.2271C162.686 72.7772 163.59 71.9725 163.796 70.9051C163.849 70.6561 163.857 70.3969 163.818 70.1444C163.778 69.8919 163.693 69.6518 163.568 69.4396C163.443 69.2274 163.281 69.048 163.092 68.913C162.902 68.7779 162.691 68.6903 162.47 68.6558C161.137 68.4882 159.561 70.595 159.076 71.8551C159.035 71.9641 158.548 73.7552 158.572 73.7524H158.599C158.356 74.0821 158.08 74.4397 157.796 74.8365C157.275 75.577 156.691 76.4152 156.099 77.3792C155.464 78.4085 154.88 79.4796 154.352 80.5869C153.755 81.8238 153.256 83.1199 152.861 84.4596C152.856 84.476 152.852 84.4928 152.849 84.5099C152.849 84.0572 152.849 82.7915 152.827 82.6937C152.672 81.3273 151.678 78.7819 150.359 78.5024C150.139 78.4634 149.915 78.478 149.7 78.5455C149.485 78.6129 149.285 78.7317 149.113 78.894C148.94 79.0562 148.8 79.2585 148.699 79.4876C148.599 79.7166 148.542 79.9674 148.531 80.2236C148.454 81.3106 149.137 82.3975 149.804 83.0849C150.556 83.8588 152.643 84.6077 152.808 84.6664C152.435 86.0396 152.141 87.4397 151.928 88.8576C151.799 89.6958 151.685 90.5201 151.595 91.3723C151.595 90.9811 151.596 90.6319 151.579 90.5844C151.423 89.2152 150.429 86.6726 149.111 86.3931C148.891 86.3532 148.666 86.3671 148.451 86.4341C148.236 86.501 148.036 86.6193 147.863 86.7815C147.69 86.9436 147.549 87.1458 147.449 87.375C147.348 87.6042 147.291 87.8551 147.281 88.1115C147.205 89.1985 147.889 90.2854 148.556 90.9728C149.222 91.6601 150.999 92.3503 151.465 92.5235C151.431 92.8448 151.392 93.169 151.358 93.4903C151.198 95.0411 151.043 96.589 150.851 98.1007C150.783 98.6343 150.701 99.1568 150.609 99.6794C150.609 99.3329 150.609 99.0395 150.592 98.9948C150.439 97.6257 149.445 95.083 148.127 94.8036C147.906 94.7641 147.682 94.7784 147.467 94.8456C147.252 94.9129 147.051 95.0315 146.879 95.1939C146.706 95.3562 146.565 95.5586 146.465 95.7879C146.364 96.0172 146.307 96.2682 146.296 96.5247C146.219 97.6117 146.905 98.6986 147.571 99.386C148.238 100.073 149.843 100.694 150.4 100.903C150.303 101.434 150.206 101.968 150.09 102.479C150.005 102.826 149.942 103.166 149.848 103.51C149.753 103.854 149.656 104.192 149.562 104.527C149.36 105.164 149.157 105.824 148.946 106.441C148.803 106.869 148.66 107.279 148.517 107.687C148.59 107.157 148.713 106.117 148.713 106.028C148.7 104.814 148.416 103.625 147.889 102.574C147.891 102.44 147.884 102.305 147.867 102.172C147.84 101.917 147.766 101.672 147.65 101.452C147.535 101.233 147.381 101.044 147.198 100.897C147.015 100.751 146.807 100.651 146.588 100.603C146.37 100.556 146.145 100.562 145.928 100.621C144.631 101.018 143.812 103.639 143.746 105.016C143.746 105.097 143.79 105.983 143.826 106.542C143.761 106.218 143.7 105.902 143.63 105.569C143.494 104.907 143.341 104.253 143.181 103.549C143.093 103.212 143.003 102.871 142.912 102.527C142.83 102.186 142.704 101.834 142.6 101.484C142.343 100.677 142.049 99.8722 141.739 99.0702C142.241 98.9305 144.013 98.4108 144.726 97.7793C145.438 97.1478 146.18 96.128 146.18 95.0355C146.186 94.779 146.145 94.524 146.06 94.2869C145.975 94.0498 145.848 93.836 145.687 93.6594C145.525 93.4828 145.333 93.3474 145.123 93.2619C144.914 93.1765 144.69 93.1429 144.469 93.1634C143.135 93.331 141.979 95.7787 141.737 97.1283C141.722 97.2121 141.642 98.204 141.608 98.7517C141.419 98.2711 141.23 97.7905 141.024 97.3099C140.428 95.9296 139.788 94.5521 139.155 93.1718C138.961 92.7498 138.772 92.3335 138.58 91.906C138.76 91.8585 140.881 91.2913 141.678 90.5844C142.386 89.9585 143.133 88.933 143.133 87.8405C143.139 87.584 143.098 87.329 143.012 87.0921C142.927 86.8551 142.799 86.6415 142.638 86.4652C142.476 86.2889 142.284 86.1538 142.074 86.0687C141.864 85.9835 141.641 85.9503 141.419 85.9712C140.088 86.1361 138.932 88.5838 138.69 89.9333C138.67 90.0367 138.559 91.4645 138.546 91.8278C138.127 90.8973 137.715 89.9641 137.334 89.0336C136.825 87.7702 136.388 86.4701 136.025 85.1414C136.11 85.119 138.323 84.5378 139.14 83.8169C139.851 83.1882 140.595 82.1628 140.595 81.0731C140.601 80.8165 140.561 80.5612 140.476 80.324C140.391 80.0867 140.264 79.8727 140.102 79.696C139.941 79.5193 139.749 79.3839 139.539 79.2986C139.329 79.2133 139.105 79.18 138.883 79.201C137.55 79.3658 136.394 81.8135 136.151 83.1659C136.134 83.2721 136.013 84.8061 136.008 85.0855C135.989 85.01 135.96 84.9318 135.941 84.8564C135.611 83.5082 135.387 82.129 135.269 80.735C135.194 79.9666 135.16 79.2289 135.141 78.4997C135.562 78.441 137.49 78.1448 138.292 77.5888C139.094 77.0327 139.904 76.1302 140.001 75.0433C140.031 74.7892 140.014 74.5306 139.952 74.2844C139.89 74.0381 139.783 73.8098 139.64 73.614C139.496 73.4183 139.318 73.2595 139.117 73.1481C138.917 73.0367 138.699 72.9751 138.476 72.9672C137.136 72.9672 135.754 75.25 135.385 76.5633C135.364 76.6332 135.23 77.3848 135.143 77.9324C135.143 77.6083 135.128 77.273 135.143 76.9629C135.143 75.7949 135.208 74.7275 135.272 73.7775C135.313 73.241 135.356 72.7549 135.405 72.3022C135.793 71.9949 137.344 70.7319 137.829 69.8322C138.314 68.9325 138.675 67.6807 138.326 66.6664C138.251 66.4248 138.133 66.2039 137.98 66.0183C137.826 65.8326 137.641 65.6863 137.435 65.5888C137.229 65.4912 137.008 65.4447 136.786 65.4523C136.563 65.4598 136.345 65.5213 136.144 65.6326C134.952 66.3423 134.639 69.1057 134.835 70.4664C134.855 70.5838 135.303 72.386 135.32 72.3721L135.342 72.3525C135.288 72.7884 135.238 73.2578 135.192 73.7691C135.109 74.7164 135.024 75.7865 135 76.9601C134.962 78.2228 134.988 79.4871 135.08 80.7462C135.173 82.1614 135.377 83.5642 135.688 84.9374C135.688 84.9514 135.688 84.9681 135.688 84.9849C135.478 84.6021 134.857 83.5571 134.801 83.4844C134.018 82.4394 131.975 80.9557 130.741 81.5592C130.538 81.6663 130.358 81.8212 130.211 82.0139C130.064 82.2066 129.953 82.4329 129.887 82.678C129.821 82.923 129.8 83.1814 129.826 83.4364C129.852 83.6913 129.924 83.9371 130.038 84.1578C130.469 85.1162 131.56 85.5884 132.445 85.7365Z" fill="#0B71BB"/>
<path id="Vector_17" d="M155.428 78.4725C155.447 78.4893 155.855 76.6703 155.869 76.5529C156.034 75.1866 155.656 72.4343 154.449 71.7637C154.246 71.6585 154.026 71.6038 153.803 71.6031C153.58 71.6024 153.36 71.6556 153.157 71.7595C152.953 71.8633 152.771 72.0154 152.622 72.2058C152.473 72.3962 152.36 72.6207 152.291 72.8646C151.969 73.8901 152.378 75.1474 152.863 76.0108C153.433 77.0335 155.425 78.4725 155.428 78.4725Z" fill="#0B71BB"/>
<g id="Group_5" opacity="0.3">
<path id="Vector_18" d="M24.431 57.9643C26.0067 58.5454 29.6889 58.0062 29.6913 58.0062C29.7301 58.0062 28.6465 55.3182 28.5617 55.1561C27.5775 53.3008 24.7267 50.3837 22.6735 50.9649C21.1924 51.3756 20.5136 53.2002 20.9985 54.7957C21.4833 56.3912 23.088 57.4725 24.431 57.9643Z" stroke="black" stroke-width="1.10658" stroke-linecap="round" stroke-linejoin="round"/>
<path id="Vector_19" d="M48.1026 86.3208C48.9996 85.2031 49.7995 83.6636 49.6492 82.1491C49.4868 80.4726 48.1948 79.165 46.6991 79.5338C44.6313 80.0451 43.1623 84.0995 42.9732 86.2649C42.9732 86.399 42.9732 87.9694 43.0023 88.8327C42.6363 88.1146 42.2751 87.3966 41.8824 86.684C40.7527 84.6248 39.5552 82.585 38.3674 80.5369C38.0014 79.911 37.6402 79.2823 37.2862 78.6564C37.4511 78.5922 38.668 78.0976 39.8703 77.4633" stroke="black" stroke-width="1.10658" stroke-linecap="round" stroke-linejoin="round"/>
<path id="Vector_20" d="M45.5306 94.3549C45.3561 93.8855 45.1379 93.4105 44.9464 92.9327C44.4301 91.7144 43.858 90.5073 43.2495 89.3003C44.4343 88.8293 45.5853 88.2519 46.6918 87.5735" stroke="black" stroke-width="1.10658" stroke-linecap="round" stroke-linejoin="round"/>
<path id="Vector_21" d="M61.0851 72.3219C60.5702 72.7604 60.1009 73.2657 59.6864 73.828C59.5967 73.9537 58.5373 75.8565 58.2877 76.3427C58.2877 74.6886 58.3071 73.04 58.3798 71.4166C58.4698 69.2219 58.6819 67.0361 59.0149 64.8727C59.1458 64.9118 62.6099 65.9624 64.2098 65.6411C65.5988 65.3617 67.3005 64.5569 67.9817 63.0258C68.6629 61.4946 68.1902 59.6085 66.7696 58.9686C64.8013 58.0829 61.6378 60.5306 60.4451 62.2154C60.3506 62.3468 59.2113 64.3949 59.027 64.7833C59.0488 64.6575 59.0561 64.5262 59.0779 64.4005C59.466 62.2424 60.0193 60.1283 60.7312 58.0829C61.1142 56.9457 61.5335 55.8867 61.9602 54.864C62.588 55.1434 65.4703 56.3449 66.9369 56.2359C68.3453 56.1326 70.1125 55.5514 70.9343 54.118C71.756 52.6846 71.4651 50.7454 70.1173 49.9267C68.2459 48.8091 64.8667 50.8265 63.5213 52.3521C63.4462 52.4331 62.7941 53.3719 62.3093 54.0621C62.508 53.6039 62.7068 53.1288 62.9056 52.693C63.6474 51.0612 64.4134 49.6194 65.1018 48.3508C65.497 47.6327 65.8679 46.9901 66.2218 46.3949C66.949 46.2916 69.9234 45.8361 71.1597 44.9727C72.396 44.1093 73.6905 42.7039 73.8577 40.9882C74.025 39.2726 72.9826 37.7135 71.4603 37.7079C69.3465 37.7079 67.1599 41.2956 66.5733 43.3661C66.5224 43.5449 66.0109 46.4396 66.0473 46.4396H66.0933C65.7442 46.9985 65.3661 47.616 64.9855 48.2922C64.2704 49.5495 63.4753 50.9746 62.6996 52.5924C61.8475 54.3272 61.0834 56.1176 60.4112 57.9544C59.6501 60.0077 59.049 62.135 58.6149 64.3111C58.6149 64.3362 58.6149 64.3641 58.6149 64.3893C58.5616 63.6796 58.3555 61.6957 58.324 61.5448C57.8901 59.4297 55.9702 55.6324 53.8637 55.4396C52.3462 55.2999 51.1971 56.7948 51.2383 58.4797C51.2796 60.1645 52.4965 61.7768 53.6382 62.7296C54.9278 63.8025 58.3071 64.5849 58.5761 64.6492C58.1817 66.8746 57.9169 69.128 57.7834 71.3942C57.701 72.7159 57.6525 74.0487 57.6162 75.3871C57.5532 74.7724 57.4926 74.2247 57.478 74.1493C57.0441 72.0313 55.1242 68.2368 53.0176 68.0441C51.5001 67.9043 50.3511 69.3992 50.3923 71.0841C50.4335 72.769 51.6504 74.3812 52.7922 75.3312C53.934 76.2812 56.8211 77.0328 57.5822 77.2173C57.5822 77.7286 57.5604 78.2427 57.5532 78.754C57.5192 81.2157 57.495 83.6746 57.4077 86.0831C57.3786 86.9214 57.3204 87.7596 57.2671 88.5979C57.2089 88.039 57.158 87.5948 57.1435 87.5277C56.7096 85.4097 54.7921 81.6153 52.6855 81.4197C51.1656 81.2828 50.019 82.7776 50.0578 84.4597C50.0966 86.1418 51.3159 87.7596 52.4577 88.7096C53.5994 89.6596 56.2078 90.3386 57.112 90.5594C57.0344 91.4144 56.9568 92.2694 56.8477 93.0909C56.7629 93.6497 56.7144 94.2085 56.6053 94.7674C56.4962 95.3262 56.4017 95.8683 56.3023 96.4131C56.0769 97.4497 55.849 98.5227 55.6066 99.5314C55.4442 100.233 55.2745 100.898 55.1218 101.566C55.1606 100.727 55.2066 99.0676 55.1969 98.9279C55.0018 97.0272 54.3876 95.2158 53.4128 93.6665C53.399 93.4541 53.3682 93.2436 53.3207 93.0378C52.9425 91.4116 51.4832 90.3442 50.0602 90.9673C48.0846 91.8335 47.1658 96.0974 47.2652 98.2712C47.2652 98.397 47.4688 99.7801 47.6046 100.649C47.4567 100.154 47.3186 99.6683 47.161 99.1598C46.8555 98.1483 46.5234 97.1508 46.1695 96.0862" stroke="black" stroke-width="1.10658" stroke-linecap="round" stroke-linejoin="round"/>
<path id="Vector_22" d="M36.0363 92.0509C36.7508 92.3549 37.5029 92.5256 38.264 92.5566C39.6264 92.6209 42.1693 91.5284 43.0299 91.14C43.3741 91.9028 43.7183 92.6628 44.0213 93.42C44.2177 93.9425 44.4383 94.4287 44.6104 94.9652C44.7825 95.5017 44.9692 96.013 45.1461 96.5299C45.454 97.5386 45.7788 98.578 46.0576 99.5728C46.2564 100.263 46.4357 100.922 46.6176 101.587C46.2467 100.858 45.4928 99.4498 45.4176 99.338C44.254 97.628 41.1318 95.1077 39.1488 95.9487C37.7186 96.5551 37.2265 98.4635 37.8689 99.9779C38.5113 101.492 40.2082 102.364 41.5924 102.677C43.1147 103.018 46.3412 102.155 46.7436 102.043C47.0393 103.144 47.3205 104.219 47.5702 105.239C47.7561 105.994 47.9306 106.72 48.0938 107.419L49.4029 107.262C49.2065 106.485 48.998 105.675 48.7702 104.829C48.472 103.711 48.1351 102.518 47.7787 101.3C48.7217 100.727 49.6347 100.092 50.5131 99.3967C51.7106 100.612 54.6074 101.853 54.9832 102.012C54.7044 103.13 54.4232 104.194 54.142 105.203C53.9966 105.739 53.8511 106.245 53.7081 106.745L55.0923 106.58C55.1747 106.265 55.2571 105.955 55.3347 105.625C55.6207 104.507 55.9092 103.295 56.1952 102.051C56.6001 102.099 59.9041 102.467 61.3756 101.897C62.7113 101.378 64.2845 100.285 64.7693 98.6563C65.2542 97.0273 64.5269 95.239 63.0385 94.8562C60.978 94.3225 58.1709 97.2955 57.2206 99.1704C57.1625 99.2794 56.6679 100.567 56.3649 101.372C56.4789 100.864 56.5952 100.369 56.7067 99.8438C56.937 98.8072 57.1358 97.7649 57.3564 96.6445C57.4461 96.0856 57.5382 95.5464 57.6279 94.9903C57.7176 94.4343 57.7758 93.8447 57.8533 93.2663C58.0061 91.9224 58.0957 90.5532 58.1757 89.1701C58.9636 89.3964 61.7731 90.1592 63.1694 89.8798C64.5657 89.6004 66.2577 88.7957 66.9389 87.2673C67.6201 85.7389 67.1474 83.8472 65.7269 83.2074C63.7585 82.3216 60.5926 84.7693 59.3999 86.4542C59.3248 86.5604 58.5878 87.8792 58.1879 88.6141C58.2242 87.7758 58.2654 86.9515 58.28 86.0993C58.3236 83.6656 58.2994 81.2012 58.28 78.7423C58.28 77.9879 58.28 77.2363 58.28 76.4846C58.5612 76.5713 61.8822 77.5604 63.4458 77.2446C64.8348 76.9652 66.5341 76.1633 67.2153 74.6321C67.8964 73.1009 67.4237 71.2149 66.0032 70.575C65.0772 70.1587 63.887 70.48 62.7622 71.1115" stroke="black" stroke-width="1.10658" stroke-linecap="round" stroke-linejoin="round"/>
<path id="Vector_23" d="M33.8096 89.4149C33.8855 89.8159 34.0296 90.1956 34.2335 90.5321C34.4211 90.8441 34.6499 91.1203 34.9117 91.3505" stroke="black" stroke-width="1.10658" stroke-linecap="round" stroke-linejoin="round"/>
<path id="Vector_24" d="M27.3909 70.1011C29.0708 69.8944 31.6283 68.704 31.8561 68.5895C32.5915 70.6966 33.4483 72.7446 34.4209 74.7199C34.9833 75.8766 35.5796 77.0195 36.1905 78.1567C35.8438 77.6845 35.5335 77.2653 35.4826 77.2123C34.1082 75.723 30.6901 73.7782 28.8405 74.9546C27.5073 75.7928 27.2721 77.7767 28.1133 79.1626C28.9545 80.5485 30.7411 81.1185 32.147 81.18C33.553 81.2414 36.3214 80.0371 37.0462 79.7046C37.2886 80.1377 37.5165 80.5736 37.7564 81.0067C38.9079 83.08 40.0642 85.1449 41.1502 87.2097C41.5308 87.9362 41.8774 88.6683 42.2386 89.4004C41.9308 88.984 41.669 88.6348 41.6229 88.5845C40.2484 87.0952 36.8304 85.1505 34.9808 86.3268C34.5609 86.5929 34.2224 87.0017 34.0112 87.4975" stroke="black" stroke-width="1.10658" stroke-linecap="round" stroke-linejoin="round"/>
<path id="Vector_25" d="M37.0536 52.7643C37.1056 52.5059 37.1324 52.2416 37.1336 51.9763C37.1336 50.2998 35.9652 48.8273 34.4501 49.0033C32.346 49.252 30.5012 53.0968 30.1085 55.2231C30.0867 55.3377 29.98 56.542 29.917 57.4193C29.8637 56.9108 29.8006 56.3883 29.7594 55.8993C29.597 54.0663 29.5461 52.3787 29.517 50.8698C29.5025 50.0176 29.5049 49.2492 29.517 48.5283C30.0818 47.9695 32.3363 45.7034 32.9568 44.2002C33.5774 42.6969 33.9798 40.6712 33.2914 39.1456C32.6029 37.6199 30.9933 36.9689 29.7206 37.9329C27.9535 39.2685 27.8517 43.6609 28.3534 45.7565C28.3971 45.9381 29.357 48.682 29.3861 48.6541L29.4201 48.6205C29.3982 49.3135 29.3837 50.0595 29.3813 50.8698C29.3813 52.3703 29.4055 54.0663 29.534 55.8993C29.6525 57.8879 29.8718 59.8667 30.1909 61.8257C30.5402 64.022 31.0577 66.1782 31.7375 68.269C31.7375 68.2942 31.7569 68.3193 31.7642 68.3417C31.3812 67.7829 30.2588 66.2601 30.1618 66.1539C28.7874 64.6646 25.3694 62.7199 23.5198 63.899C22.1865 64.7372 21.9514 66.7183 22.7925 68.1042C23.4301 69.1632 24.5912 69.7304 25.7233 69.9763" stroke="black" stroke-width="1.10658" stroke-linecap="round" stroke-linejoin="round"/>
<path id="Vector_26" d="M40.7855 76.9398C41.209 76.6864 41.6039 76.3739 41.9612 76.0093C42.9866 74.8917 44.0217 73.1425 43.8568 71.4325C43.692 69.7225 42.4024 68.4511 40.9067 68.82C38.8389 69.3313 37.3699 73.3856 37.1832 75.5483C37.1687 75.7132 37.1954 77.9708 37.2245 78.5464C36.4366 77.1633 35.6609 75.7774 34.9434 74.3775C33.9669 72.4887 33.098 70.5287 32.3423 68.5098C32.4683 68.4595 35.8621 67.1323 37.0426 65.847C38.0656 64.7293 39.1007 62.9802 38.9359 61.2702C38.771 59.5601 37.4814 58.286 35.9857 58.6548C33.918 59.1662 32.4514 63.2205 32.2623 65.386C32.2477 65.5564 32.2768 67.9873 32.3084 68.426C32.2647 68.3114 32.209 68.1941 32.1678 68.0767C31.4576 66.0296 30.9076 63.9135 30.5242 61.7535C30.2988 60.566 30.1412 59.4148 30.0079 58.2888C30.6624 58.1184 33.644 57.2913 34.8149 56.2686C35.3834 55.7795 35.8866 55.1967 36.3081 54.539" stroke="black" stroke-width="1.10658" stroke-linecap="round" stroke-linejoin="round"/>
<path id="Vector_27" d="M61.8343 54.441C61.8707 54.4606 62.2513 51.5351 62.2585 51.3479C62.324 49.1741 61.3422 44.9213 59.3496 44.0999C57.9194 43.5047 56.477 44.6 56.1207 46.2318C55.7643 47.8636 56.5788 49.7971 57.4636 51.0601C58.506 52.5438 61.8319 54.441 61.8343 54.441Z" stroke="black" stroke-width="1.10658" stroke-linecap="round" stroke-linejoin="round"/>
</g>
<g id="Group_6" opacity="0.3">
<path id="Vector_28" d="M117.427 18.6198C118.743 19.2317 120.062 19.6564 120.064 19.6564C120.067 19.6564 120.008 16.7198 119.996 16.5242C119.713 14.3755 118.057 10.4106 115.984 10.0194C114.481 9.73997 113.238 11.1203 113.151 12.8135C113.063 14.5068 114.171 16.2168 115.243 17.2842" stroke="black" stroke-width="1.10658" stroke-linecap="round" stroke-linejoin="round"/>
<path id="Vector_29" d="M148.514 41.8439C148.767 41.9761 149.029 42.0818 149.297 42.1596C150.672 42.5201 152.509 42.5452 153.661 41.4388C154.812 40.3323 155.004 38.3819 153.903 37.1581C152.388 35.4593 148.645 36.2975 146.977 37.3174C146.847 37.3956 145.108 38.7731 144.808 39.047C144.868 38.9408 144.922 38.8234 144.982 38.7172C146.069 36.903 147.292 35.2031 148.638 33.6375C149.365 32.7601 150.114 31.961 150.854 31.2205C151.338 31.7542 153.588 34.1544 154.975 34.7132C156.305 35.2497 158.126 35.504 159.372 34.5512C159.829 34.2121 160.181 33.7162 160.38 33.1336C160.579 32.551 160.614 31.9111 160.48 31.3043" stroke="black" stroke-width="1.10658" stroke-linecap="round" stroke-linejoin="round"/>
<path id="Vector_30" d="M128.775 7.05713C129.374 6.1155 129.805 5.00063 129.728 3.88297C129.609 2.20648 128.344 0.85131 126.845 1.16705C124.766 1.60853 123.192 5.60976 122.947 7.76685C122.928 7.95126 122.887 10.9103 122.923 10.8991L122.967 10.8823C122.724 11.5138 122.448 12.19 122.174 12.9388C121.672 14.3359 121.12 15.895 120.615 17.6526C120.054 19.5381 119.59 21.4601 119.224 23.4085C118.805 25.5878 118.555 27.8058 118.477 30.0363C118.476 30.0633 118.476 30.0903 118.477 30.1173C118.313 29.4271 117.791 27.5243 117.75 27.3818C116.984 25.3952 114.492 22.0729 112.39 22.33C110.875 22.5144 109.993 24.2272 110.294 25.8758C110.594 27.5243 112.058 28.8488 113.333 29.5417C114.771 30.3213 118.218 30.3799 118.492 30.3799C118.458 32.6509 118.554 34.9219 118.78 37.1781C118.909 38.4942 119.074 39.813 119.265 41.1347C119.105 40.5451 118.957 40.017 118.931 39.9499C118.165 37.9605 115.67 34.641 113.569 34.8953C112.056 35.0825 111.174 36.7953 111.474 38.4411C111.775 40.0868 113.239 41.4169 114.514 42.107C115.789 42.7972 118.744 42.9229 119.522 42.9453C119.597 43.451 119.665 43.9568 119.74 44.4625C120.102 46.8906 120.468 49.3104 120.771 51.6966C120.877 52.5348 120.955 53.3731 121.035 54.2113C120.892 53.686 120.768 53.2473 120.742 53.1831C119.978 51.1936 117.484 47.8742 115.382 48.1284C113.869 48.3156 112.987 50.0285 113.287 51.6742C113.588 53.32 115.052 54.65 116.327 55.3401C117.561 56.0107 120.271 56.1449 121.195 56.1784C121.255 57.0362 121.316 57.8912 121.34 58.7239C121.34 59.2827 121.386 59.8415 121.365 60.4004C121.343 60.9592 121.34 61.518 121.331 62.0769C121.275 63.1442 121.221 64.2479 121.146 65.2873C121.095 66.0138 121.037 66.7012 120.982 67.3969C120.885 66.5587 120.664 64.9213 120.632 64.7872C120.148 62.6888 118.109 58.967 115.998 58.8552C114.47 58.7714 113.375 60.3082 113.447 61.9846C113.52 63.6611 114.8 65.2315 115.968 66.1368C117.258 67.1371 120.521 67.7825 120.931 67.8608C120.831 69.0092 120.727 70.124 120.615 71.1774C120.533 71.9542 120.448 72.703 120.361 73.4127L121.621 73.8542C121.704 73.0532 121.785 72.215 121.864 71.3395C121.968 70.1743 122.058 68.9253 122.14 67.6428C123.199 67.537 124.251 67.3607 125.292 67.1147C125.987 68.7689 128.239 71.211 128.53 71.5239C127.9 72.4208 127.279 73.2842 126.681 74.0889C126.365 74.5164 126.062 74.9272 125.762 75.3156L127.093 75.7822L127.643 75.0138C128.288 74.1085 128.959 73.1222 129.643 72.1051C129.997 72.3314 132.918 74.1504 134.467 74.2817C135.873 74.4019 137.693 74.1029 138.678 72.812C139.662 71.5211 139.604 69.554 138.362 68.5369C136.644 67.1203 133.056 68.604 131.541 69.9005C131.451 69.9787 130.571 70.9343 130.011 71.549C130.288 71.1299 130.562 70.7276 130.84 70.2945C131.4 69.4422 131.938 68.5705 132.518 67.6344L133.325 66.2374C133.604 65.7735 133.846 65.2454 134.113 64.7481C134.707 63.5773 135.257 62.3591 135.79 61.1157C136.44 61.6745 138.772 63.6304 140.154 64.0048C141.536 64.3792 143.366 64.3904 144.517 63.2839C145.669 62.1774 145.86 60.2271 144.76 59.0033C143.245 57.3044 139.504 58.1427 137.836 59.1625C137.732 59.2268 136.607 60.1126 135.996 60.6127C136.312 59.8639 136.629 59.1178 136.927 58.3467C137.788 56.1113 138.598 53.8425 139.412 51.5708C139.654 50.8751 139.919 50.1737 140.173 49.492C140.416 49.6959 143.131 52.0961 144.677 52.5041C146.049 52.8673 147.889 52.8897 149.041 51.7832C150.192 50.6767 150.384 48.7292 149.283 47.5053C147.768 45.8065 144.028 46.6447 142.36 47.6618C142.234 47.74 140.617 49.017 140.219 49.3662C140.779 47.8406 141.349 46.329 141.965 44.8649C142.786 42.8823 143.718 40.9634 144.755 39.1201C145.604 39.8663 146.489 40.5557 147.407 41.1849" stroke="black" stroke-width="1.10658" stroke-linecap="round" stroke-linejoin="round"/>
<path id="Vector_31" d="M126.721 19.791C127.678 19.2741 128.565 18.4917 128.96 17.4104C129.528 15.8596 128.943 13.9848 127.489 13.4706C125.467 12.7553 122.471 15.4712 121.392 17.2567C121.332 17.3545 120.83 18.4163 120.474 19.1959C120.597 18.7041 120.716 18.1928 120.842 17.7233C121.31 15.963 121.833 14.3843 122.296 12.99C122.57 12.1993 122.832 11.4896 123.084 10.8302C123.792 10.5703 126.631 9.48896 127.71 8.38247C127.816 8.2735 127.92 8.15894 128.025 8.03879" stroke="black" stroke-width="1.10658" stroke-linecap="round" stroke-linejoin="round"/>
<path id="Vector_32" d="M159.815 30.0712C158.319 28.4841 154.8 28.8474 153.129 29.6102C153.035 29.6549 152.106 30.2221 151.432 30.644C151.769 30.3115 152.114 29.9622 152.443 29.6521C153.677 28.4813 154.867 27.495 155.929 26.6316C156.538 26.1482 157.095 25.7235 157.626 25.3323C158.339 25.567 161.226 26.4695 162.656 26.232C164.086 25.9945 165.771 25.2569 166.493 23.7508C167.216 22.2448 166.789 20.3419 165.388 19.6546C163.449 18.699 160.217 21.0517 158.981 22.6807C158.874 22.8232 157.422 25.2652 157.461 25.2764H157.505C156.991 25.6425 156.446 26.0392 155.859 26.4891C154.778 27.3273 153.563 28.2829 152.303 29.4285C150.933 30.6439 149.626 31.95 148.388 33.3404C146.995 34.8923 145.725 36.5838 144.592 38.395L144.555 38.462C144.747 37.7831 145.224 35.8635 145.246 35.7126C145.559 33.5667 145.069 29.2106 143.193 28.0873C141.843 27.2798 140.284 28.1488 139.748 29.7135C139.213 31.2783 139.797 33.3152 140.529 34.7039C141.355 36.2686 144.206 38.504 144.432 38.6828C143.319 40.5593 142.316 42.5196 141.431 44.5505C140.907 45.7324 140.412 46.9367 139.93 48.155C140.08 47.5598 140.209 47.0373 140.219 46.9535C140.531 44.8076 140.044 40.4515 138.168 39.3282C136.815 38.5207 135.259 39.3897 134.723 40.9544C134.187 42.5192 134.772 44.5561 135.504 45.9448C136.236 47.3335 138.655 49.3145 139.283 49.8259C139.101 50.2953 138.917 50.7591 138.737 51.223C137.877 53.4778 137.026 55.7299 136.134 57.9122C135.821 58.6806 135.487 59.4238 135.164 60.1698C135.295 59.6417 135.407 59.1975 135.407 59.1276C135.719 56.9817 135.23 52.6256 133.353 51.5052C132.001 50.6977 130.444 51.5638 129.909 53.1286C129.373 54.6933 129.957 56.7302 130.689 58.1189C131.397 59.4629 133.598 61.2987 134.355 61.9078C133.993 62.6594 133.627 63.4139 133.256 64.1236C132.99 64.6014 132.76 65.082 132.469 65.5458L131.625 66.9429C131.067 67.7979 130.498 68.6864 129.928 69.5051C129.54 70.064 129.16 70.6228 128.782 71.1593C129.102 70.3965 129.703 68.8932 129.739 68.7591C130.201 66.9207 130.247 64.9763 129.87 63.1121C129.929 62.9101 129.972 62.7025 129.998 62.4918C130.197 60.8153 129.213 59.1863 127.691 59.1248C125.579 59.0382 123.296 62.5588 122.653 64.6042C122.615 64.7243 122.331 66.0851 122.169 66.9485C122.198 66.426 122.234 65.9174 122.261 65.3754C122.319 64.308 122.348 63.2406 122.387 62.0922C122.387 61.5334 122.387 60.9746 122.387 60.4157C122.387 59.8569 122.348 59.2589 122.331 58.675C122.266 57.3226 122.142 55.9535 121.992 54.5787C122.804 54.6374 125.688 54.7883 127.014 54.2155C128.34 53.6427 129.892 52.4859 130.316 50.8374C130.74 49.1888 129.974 47.4341 128.479 47.1072C126.401 46.6545 123.681 49.7337 122.779 51.6421C122.721 51.7622 122.207 53.2152 121.938 54.0227C121.844 53.1845 121.752 52.3714 121.63 51.5387C121.284 49.1385 120.867 46.7216 120.46 44.3074C120.336 43.567 120.217 42.8293 120.098 42.0917C120.389 42.114 123.812 42.3711 125.298 41.7396C126.617 41.1808 128.161 40.0184 128.585 38.3698C129.009 36.7213 128.243 34.9666 126.748 34.6396C124.67 34.187 121.95 37.2661 121.049 39.1746C120.981 39.3199 120.241 41.4099 120.079 41.9687C119.817 40.3397 119.57 38.7163 119.381 37.1041C119.118 34.9281 118.977 32.7348 118.959 30.5378C119.095 30.5378 122.668 30.8452 124.188 30.1886C125.509 29.6297 127.051 28.4674 127.475 26.8188C127.899 25.1702 127.133 23.4155 125.637 23.0886C123.56 22.6359 120.843 25.7123 119.938 27.6235C119.868 27.7744 119.075 30.0265 118.969 30.4484C118.969 30.3199 118.957 30.1886 118.957 30.06C118.994 27.8565 119.2 25.6611 119.572 23.4993C119.766 22.3034 120.009 21.1718 120.266 20.0765C120.925 20.2106 123.95 20.7834 125.376 20.3559C125.553 20.3028 125.734 20.2442 125.916 20.1715" stroke="black" stroke-width="1.10658" stroke-linecap="round" stroke-linejoin="round"/>
<path id="Vector_33" d="M150.884 30.7608C150.91 30.7944 152.249 28.2684 152.316 28.098C153.109 26.1253 153.638 21.772 152.074 20.1207C150.956 18.9304 149.257 19.2824 148.38 20.6404C147.502 21.9983 147.601 24.1275 147.989 25.6894C148.455 27.5252 150.884 30.758 150.884 30.7608Z" stroke="black" stroke-width="1.10658" stroke-linecap="round" stroke-linejoin="round"/>
</g>
</g>
<g id="freepik--Device--inject-26">
<path id="Vector_34" d="M75.8462 47.0346H153.016L143.028 110.853H65.8589L75.8462 47.0346Z" fill="white" stroke="#263238" stroke-width="1.10658" stroke-linecap="round" stroke-linejoin="round"/>
<path id="Vector_35" d="M151.474 47.0346L146.672 77.7256L142.238 106.061L141.487 110.856H64.32L71.7765 63.2072L74.3073 47.0346H151.474Z" fill="#263238" stroke="#263238" stroke-width="1.10658" stroke-linecap="round" stroke-linejoin="round"/>
<path id="Vector_36" d="M76.4119 49.0347H148.74L139.378 108.852H67.05L76.4119 49.0347Z" fill="#0B71BB" stroke="#263238" stroke-width="1.10658" stroke-linecap="round" stroke-linejoin="round"/>
<path id="Vector_37" d="M67.7813 104.177L67.0492 108.855H139.378L140.11 104.177H67.7813Z" fill="#BFBFBF" stroke="#263238" stroke-width="1.10658" stroke-linecap="round" stroke-linejoin="round"/>
<path id="Vector_38" d="M146.595 49.0355L137.234 108.853H139.376L148.738 49.0355H146.595Z" fill="#BFBFBF" stroke="#263238" stroke-width="1.10658" stroke-linecap="round" stroke-linejoin="round"/>
<path id="Vector_39" d="M145.34 70.7759L147.16 59.1382H145.02L143.197 70.7759H145.34Z" fill="#A1A1A1" stroke="#263238" stroke-width="1.10658" stroke-linecap="round" stroke-linejoin="round"/>
<path id="Vector_40" d="M141.852 106.629H47.1274V110.854H141.852V106.629Z" fill="white" stroke="#263238" stroke-width="1.10658" stroke-linecap="round" stroke-linejoin="round"/>
<path id="Vector_41" d="M60.6304 106.629H14.1359V110.854H60.6304V106.629Z" fill="#263238" stroke="#263238" stroke-width="1.10658" stroke-linecap="round" stroke-linejoin="round"/>
<path id="Vector_42" d="M75.7479 53.261H148.076L148.738 49.0362H76.4097L75.7479 53.261Z" fill="#BFBFBF" stroke="#263238" stroke-width="1.10658" stroke-linecap="round" stroke-linejoin="round"/>
<path id="Vector_43" d="M80.301 51.9449H114.753L115.068 49.9311H80.6162L80.301 51.9449Z" fill="white" stroke="#263238" stroke-width="1.10658" stroke-linecap="round" stroke-linejoin="round"/>
</g>
<g id="freepik--Ads--inject-26">
<path id="Vector_44" opacity="0.2" d="M78.6102 72.36H105.326L101.87 94.4562H75.1534L78.6102 72.36Z" fill="black"/>
<path id="Vector_45" d="M76.9598 70.3183H103.678L100.222 92.4117H73.5031L76.9598 70.3183Z" fill="white" stroke="#263238" stroke-width="1.10658" stroke-linecap="round" stroke-linejoin="round"/>
<path id="Vector_46" d="M103.276 72.8925L103.681 70.3191H76.9621L76.5597 72.8925H103.276Z" fill="#263238" stroke="#263238" stroke-width="1.10658" stroke-linecap="round" stroke-linejoin="round"/>
<path id="Vector_47" d="M102.197 71.661C102.198 71.812 102.159 71.9598 102.087 72.0855C102.014 72.2113 101.911 72.3094 101.79 72.3674C101.669 72.4255 101.535 72.4408 101.407 72.4115C101.278 72.3822 101.16 72.3095 101.067 72.2028C100.975 72.096 100.912 71.9599 100.886 71.8118C100.861 71.6637 100.874 71.5103 100.924 71.3709C100.975 71.2315 101.06 71.1125 101.169 71.029C101.278 70.9454 101.407 70.9011 101.538 70.9017C101.713 70.9017 101.88 70.9817 102.004 71.1241C102.128 71.2665 102.197 71.4596 102.197 71.661Z" fill="white" stroke="#263238" stroke-width="1.10658" stroke-linecap="round" stroke-linejoin="round"/>
<path id="Vector_48" d="M87.3215 75.3445C88.6209 75.5625 89.0305 76.7612 88.7372 78.4656L88.679 78.8093H87.53L87.6052 78.3734C87.7967 77.2557 87.5227 76.56 86.6355 76.56C85.7483 76.56 85.2586 77.2502 85.0671 78.3734C84.5823 81.2207 88.2742 81.2402 87.6633 84.8C87.3724 86.5044 86.5337 87.7199 85.1592 87.9378L84.9944 88.899H83.9884L84.1532 87.9378C82.8224 87.7199 82.4127 86.5212 82.6988 84.8L82.8321 84.0204H83.9811L83.8332 84.8894C83.6369 86.0322 83.935 86.686 84.8174 86.686C85.6998 86.686 86.2186 86.0322 86.4125 84.8894C86.8973 82.0617 83.2224 82.0254 83.8332 78.4628C84.129 76.7221 84.9386 75.5793 86.301 75.3417L86.4755 74.3275H87.4815L87.3215 75.3445Z" fill="#263238"/>
<path id="Vector_49" d="M89.8189 86.2277L89.5183 87.988H88.3378L88.6384 86.2277H89.8189ZM89.4723 81.2625L90.4928 75.297H91.7194L90.6989 81.2625L89.8722 85.1743H88.9705L89.4723 81.2625Z" fill="#263238"/>
<path id="Vector_50" d="M92.3063 86.2277L92.0057 87.988H90.8252L91.1258 86.2277H92.3063ZM91.9621 81.2625L92.9802 75.297H94.2092L93.1887 81.2625L92.3669 85.1743H91.453L91.9621 81.2625Z" fill="#263238"/>
<path id="Vector_51" opacity="0.2" d="M146.669 77.7245L142.235 106.06H114.564L119 77.7245H146.669Z" fill="black"/>
<path id="Vector_52" d="M116.968 75.827H151.23L146.796 104.163H112.534L116.968 75.827Z" fill="white" stroke="#263238" stroke-width="1.10658" stroke-linecap="round" stroke-linejoin="round"/>
<path id="Vector_53" d="M150.712 79.1293L151.228 75.8267H116.966L116.45 79.1293H150.712Z" fill="#263238" stroke="#263238" stroke-width="1.10658" stroke-linecap="round" stroke-linejoin="round"/>
<path id="Vector_54" d="M149.33 77.5536C149.33 77.7471 149.28 77.9362 149.186 78.097C149.093 78.2579 148.961 78.3832 148.805 78.4571C148.65 78.531 148.479 78.5502 148.315 78.5122C148.15 78.4743 147.999 78.3809 147.88 78.2439C147.762 78.1069 147.681 77.9325 147.649 77.7426C147.616 77.5528 147.633 77.3562 147.698 77.1776C147.763 76.999 147.872 76.8465 148.012 76.7395C148.151 76.6324 148.316 76.5755 148.484 76.5761C148.595 76.5761 148.705 76.6014 148.808 76.6505C148.911 76.6997 149.004 76.7717 149.083 76.8626C149.161 76.9534 149.224 77.0612 149.266 77.1798C149.308 77.2983 149.33 77.4254 149.33 77.5536Z" fill="white" stroke="#263238" stroke-width="1.10658" stroke-linecap="round" stroke-linejoin="round"/>
<path id="Vector_55" d="M120.494 89.7709C120.763 89.3435 121.118 88.9966 121.527 88.7594C121.937 88.5222 122.39 88.4015 122.848 88.4073C124.683 88.4073 125.233 89.9581 124.831 92.3191L124.281 95.5408C123.851 98.0555 122.53 99.6985 120.349 99.6985C118.167 99.6985 117.44 98.0555 117.859 95.5408L118.048 94.4231H119.537L119.328 95.647C119.086 97.1279 119.452 98.0192 120.593 98.0192C121.735 98.0192 122.419 97.1279 122.671 95.647L123.216 92.4393C123.471 90.9584 123.093 90.0642 121.951 90.0642C121.076 90.0642 120.387 90.6231 120.038 91.8273L119.975 92.2046H118.487L120.438 83.0621H126.057L125.776 84.7078H121.582L120.494 89.7709Z" fill="#263238"/>
<path id="Vector_56" d="M127.137 87.0446C127.566 84.5299 128.926 82.9092 131.105 82.9092C133.284 82.9092 134.111 84.5326 133.682 87.0446L132.227 95.5304C131.798 98.0452 130.436 99.6882 128.235 99.6882C126.034 99.6882 125.253 98.0452 125.685 95.5304L127.137 87.0446ZM127.236 95.6478C126.994 97.1287 127.382 98.02 128.523 98.02C129.665 98.02 130.368 97.1287 130.62 95.6478L132.116 86.9524C132.373 85.4463 131.995 84.555 130.831 84.555C129.668 84.555 128.986 85.4463 128.729 86.9524L127.236 95.6478Z" fill="#263238"/>
<path id="Vector_57" d="M136.844 84.4975L136.481 86.6909C136.367 87.3671 136.013 87.8086 135.429 87.8086C134.844 87.8086 134.643 87.3615 134.76 86.6909L135.135 84.4975C135.249 83.8325 135.601 83.3798 136.187 83.3798C136.774 83.3798 136.965 83.8325 136.844 84.4975ZM139.026 83.4161L135.46 90.3652H135.055L138.614 83.4161H139.026ZM135.564 84.4667L135.179 86.73C135.113 87.1072 135.179 87.3559 135.501 87.3559C135.824 87.3559 135.986 87.1072 136.039 86.73L136.427 84.4667C136.49 84.0895 136.406 83.8325 136.105 83.8325C135.804 83.8325 135.623 84.0895 135.557 84.4667H135.564ZM139.37 87.0877L138.997 89.2727C138.883 89.9461 138.539 90.3903 137.945 90.3903C137.351 90.3903 137.159 89.9433 137.276 89.2727L137.649 87.0877C137.763 86.4226 138.115 85.97 138.699 85.97C139.283 85.97 139.477 86.4226 139.363 87.0877H139.37ZM138.083 87.0597L137.693 89.3118C137.627 89.689 137.712 89.9461 138.013 89.9461C138.313 89.9461 138.498 89.689 138.553 89.3118L138.939 87.0597C139.002 86.6825 138.917 86.4338 138.614 86.4338C138.311 86.4338 138.141 86.6825 138.076 87.0597H138.083Z" fill="#263238"/>
<path id="Vector_58" d="M133.269 92.9493C133.511 91.5942 134.239 90.714 135.409 90.714C136.58 90.714 137.029 91.5858 136.796 92.9493L136.013 97.5346C135.771 98.8785 135.043 99.7699 133.863 99.7699C132.682 99.7699 132.256 98.8841 132.486 97.5346L133.269 92.9493ZM133.322 97.5876C133.184 98.398 133.4 98.8646 134.016 98.8646C134.631 98.8646 135.007 98.398 135.148 97.5876L135.948 92.8991C136.086 92.1027 135.882 91.6193 135.254 91.6193C134.626 91.6193 134.26 92.1027 134.125 92.8991L133.322 97.5876Z" fill="#263238"/>
<path id="Vector_59" d="M139.898 94.9352L139.745 95.8349H137.976L137.319 99.6741H136.461L137.978 90.8054H141.033L140.88 91.7051H138.681L138.129 94.9352H139.898Z" fill="#263238"/>
<path id="Vector_60" d="M143.635 94.9356L143.482 95.8353H141.712L141.055 99.6745H140.2L141.715 90.8058H144.769L144.616 91.7055H142.418L141.867 94.9356H143.635Z" fill="#263238"/>
<path id="Vector_61" opacity="0.2" d="M93.2776 47.0367L90.7469 63.2092H71.7733L74.3041 47.0367H93.2776Z" fill="black"/>
<path id="Vector_62" d="M57.4595 30.5483H93.9424L89.2227 60.7224H52.7373L57.4595 30.5483Z" fill="white" stroke="#263238" stroke-width="1.10658" stroke-linecap="round" stroke-linejoin="round"/>
<path id="Vector_63" d="M78.3674 30.5482L76.256 33.4988L76.1058 30.5482H75.3518L74.1107 33.1188L73.5144 30.5482H72.6853L71.9048 33.2362L70.7218 30.5482H70.1085L69.7279 33.8481L67.4153 30.5678L67.6577 34.9239L64.7948 32.2806L65.779 36.4271L62.4725 34.5243L64.1621 38.302L60.5405 37.2095L62.8701 40.4731L59.0715 40.2328L61.9489 42.8565L58.1212 43.4796L61.4374 45.3628L57.7261 46.8242L61.3574 47.8943L57.9031 50.138L61.7065 50.3532L58.6449 53.2926L62.4725 52.6472L59.9224 56.1706L63.6288 54.6869L61.6871 58.6574L65.1318 56.3942L63.8712 60.6608L66.9184 57.7018L66.5547 60.7223H67.3765L68.9231 58.5624L69.0346 60.7223H70.2079L71.0709 58.9396L71.483 60.7223H72.7241L73.2744 58.8223L74.1131 60.7223H75.1628L75.4537 58.2132L77.2233 60.7223H77.7226L77.5214 57.1346L80.3867 59.7779L79.4001 55.6314L82.709 57.537L81.017 53.7565L84.6411 54.8518L82.3115 51.5882L86.1101 51.8285L83.2302 49.202L87.0603 48.5817L83.7417 46.6984L87.453 45.2371L83.8241 44.1669L87.2761 41.9232L83.4751 41.7053L86.5343 38.7658L82.7066 39.4113L85.2568 35.8878L81.5503 37.3743L83.492 33.4011L80.0498 35.6671L81.3103 31.3976L78.2632 34.3567L78.7214 30.5482H78.3674Z" fill="white" stroke="#263238" stroke-width="1.10658" stroke-linecap="round" stroke-linejoin="round"/>
<path id="Vector_64" d="M93.3909 34.0661L93.9412 30.5482H57.4583L56.908 34.0661H93.3909Z" fill="#263238" stroke="#263238" stroke-width="1.10658" stroke-linecap="round" stroke-linejoin="round"/>
<path id="Vector_65" d="M91.923 32.3876C91.9235 32.5939 91.8708 32.7957 91.7716 32.9674C91.6724 33.1392 91.5313 33.2732 91.3659 33.3524C91.2006 33.4316 91.0186 33.4524 90.843 33.4123C90.6674 33.3722 90.506 33.2729 90.3794 33.1271C90.2528 32.9812 90.1667 32.7953 90.1319 32.5929C90.097 32.3906 90.1152 32.1809 90.1839 31.9904C90.2526 31.7999 90.3689 31.6372 90.518 31.523C90.667 31.4087 90.8422 31.348 91.0212 31.3486C91.2604 31.3486 91.4897 31.458 91.6589 31.6529C91.828 31.8477 91.923 32.112 91.923 32.3876Z" fill="white" stroke="#263238" stroke-width="1.10658" stroke-linecap="round" stroke-linejoin="round"/>
<path id="Vector_66" d="M67.4938 41.4334C68.7689 41.4334 69.1519 42.1348 68.9143 43.5235L68.8392 43.9677C68.6671 44.9652 68.3156 45.5855 67.5592 45.8426C68.3107 46.0997 68.4901 46.8261 68.3131 47.8656L68.175 48.6591C67.9325 50.0758 67.2053 50.8721 65.9278 50.8721H64.0443L65.6563 41.4334H67.4938ZM66.0902 49.9137C66.7569 49.9137 67.1302 49.5085 67.2805 48.634L67.4235 47.7957C67.6029 46.7451 67.2999 46.3986 66.5169 46.3986H65.7218L65.1206 49.9165L66.0902 49.9137ZM66.5872 45.443C67.3144 45.443 67.7313 45.1636 67.901 44.1885L67.9956 43.6296C68.1386 42.7914 67.9616 42.389 67.3071 42.389H66.4054L65.8842 45.4347L66.5872 45.443Z" fill="#263238"/>
<path id="Vector_67" d="M69.8749 48.6444C69.7294 49.4826 69.9355 50.0079 70.6021 50.0079C71.2687 50.0079 71.6372 49.4938 71.7827 48.6444L73.0141 41.4326H73.8698L72.6432 48.5913C72.4008 50.0219 71.6736 50.9775 70.4009 50.9775C69.1283 50.9775 68.7404 50.0219 68.9828 48.5913L70.207 41.4326H71.1088L69.8749 48.6444Z" fill="#263238"/>
<path id="Vector_68" d="M75.1857 47.488L74.49 41.433H75.4378L75.9227 46.0713L78.0025 41.433H78.8679L76.0899 47.488L75.5105 50.8717H74.6112L75.1857 47.488Z" fill="#263238"/>
<path id="Vector_69" d="M79.0162 49.5652L78.7931 50.8729H77.9156L78.1386 49.5652H79.0162ZM78.7592 45.8713L79.5155 41.4342H80.427L79.6682 45.8713L79.0549 48.7828H78.3762L78.7592 45.8713Z" fill="#263238"/>
<path id="Vector_70" opacity="0.2" d="M139.014 47.037L136.464 63.3298H109.745L112.295 47.037H139.014Z" fill="black"/>
<path id="Vector_71" d="M111.687 39.1907H138.406L134.947 61.284H108.231L111.687 39.1907Z" fill="white" stroke="#263238" stroke-width="1.10658" stroke-linecap="round" stroke-linejoin="round"/>
<path id="Vector_72" d="M138.002 41.7633L138.407 39.1899H111.688L111.286 41.7633H138.002Z" fill="#263238" stroke="#263238" stroke-width="1.10658" stroke-linecap="round" stroke-linejoin="round"/>
<path id="Vector_73" d="M136.267 41.296C136.632 41.296 136.929 40.9548 136.929 40.5338C136.929 40.1129 136.632 39.7717 136.267 39.7717C135.901 39.7717 135.605 40.1129 135.605 40.5338C135.605 40.9548 135.901 41.296 136.267 41.296Z" fill="white" stroke="#263238" stroke-width="1.10658" stroke-linecap="round" stroke-linejoin="round"/>
<path id="Vector_74" d="M119.373 47.4012L118.859 50.3994H118.215L119.354 43.7353H119.999L119.487 46.7334H120.908L121.419 43.7353H122.064L120.925 50.3994H120.28L120.794 47.4012H119.373Z" fill="#263238"/>
<path id="Vector_75" d="M122.402 45.3453C122.574 44.3254 123.129 43.6688 124.009 43.6688C124.889 43.6688 125.221 44.3254 125.052 45.3453L124.462 48.7905C124.29 49.7992 123.735 50.467 122.848 50.467C121.961 50.467 121.636 49.7992 121.81 48.7905L122.402 45.3453ZM122.441 48.8296C122.337 49.4387 122.499 49.7908 122.962 49.7908C123.425 49.7908 123.709 49.4387 123.813 48.8296L124.414 45.3062C124.518 44.7054 124.365 44.345 123.893 44.345C123.42 44.345 123.146 44.7054 123.044 45.3062L122.441 48.8296Z" fill="#263238"/>
<path id="Vector_76" d="M125.631 50.399L126.654 44.4111H125.59L125.706 43.7349H128.482L128.365 44.4111H127.301L126.276 50.399H125.631Z" fill="#263238"/>
<path id="Vector_77" d="M117.633 52.7378L117.604 52.9195H116.993L117.03 52.6987C117.131 52.1008 116.993 51.7487 116.533 51.7487C116.072 51.7487 115.805 52.1008 115.709 52.6903C115.454 54.1852 117.371 54.3277 117.049 56.2026C116.877 57.2113 116.344 57.8791 115.461 57.8791C114.579 57.8791 114.276 57.2197 114.448 56.2026L114.513 55.8226H115.117L115.044 56.2417C114.943 56.8424 115.098 57.1945 115.558 57.1945C116.019 57.1945 116.298 56.8424 116.399 56.2417C116.654 54.7552 114.744 54.6127 115.066 52.7378C115.241 51.7096 115.764 51.0613 116.63 51.0613C117.495 51.0613 117.817 51.7291 117.633 52.7378Z" fill="#263238"/>
<path id="Vector_78" d="M118.217 56.4599L117.764 57.7927H117.17L119.417 51.1286H120.351L120.317 57.7927H119.674V56.4487L118.217 56.4599ZM118.409 55.8228H119.699V51.9753L118.409 55.8228Z" fill="#263238"/>
<path id="Vector_79" d="M120.823 57.7923L121.962 51.1282H122.607L121.584 57.1161H123.235L123.118 57.7923H120.823Z" fill="#263238"/>
<path id="Vector_80" d="M126.298 54.0893L126.184 54.7543H124.771L124.359 57.1265H126.092L125.983 57.7915H123.602L124.742 51.1275H127.122L127.006 51.8008H125.273L124.882 54.0781L126.298 54.0893Z" fill="#263238"/>
<path id="Vector_81" d="M127.366 56.8783L127.208 57.8032H126.587L126.745 56.8783H127.366ZM127.184 54.2714L127.72 51.1391H128.364L127.829 54.2714L127.395 56.3279H126.91L127.184 54.2714Z" fill="#263238"/>
<path id="Vector_82" d="M128.67 56.8791L128.512 57.804H127.894L128.052 56.8791H128.67ZM128.483 54.2721L129.019 51.1399H129.664L129.128 54.2721L128.694 56.3286H128.209L128.483 54.2721Z" fill="#263238"/>
</g>
</g>
</svg>
