<svg width="17" height="17" viewBox="0 0 17 17" fill="none" xmlns="http://www.w3.org/2000/svg">
<g id="Location">
<g id="Vector">
<path fill-rule="evenodd" clip-rule="evenodd" d="M8.5 2.46457C5.53407 2.46457 3.03215 4.61929 3.23593 7.30272C3.26516 7.68759 3.30885 8.02261 3.36838 8.28846C3.66871 9.62969 4.61144 10.9621 5.67328 12.0931C6.72609 13.2146 7.84703 14.087 8.42626 14.5101C8.47256 14.5439 8.52744 14.5439 8.57374 14.5101C9.15297 14.087 10.2739 13.2146 11.3267 12.0931C12.3886 10.9621 13.3313 9.62969 13.6316 8.28846C13.6912 8.02261 13.7348 7.68759 13.7641 7.30272C13.9679 4.61929 11.4659 2.46457 8.5 2.46457ZM2.13998 7.37841C1.87998 3.95472 5.04517 1.41669 8.5 1.41669C11.9548 1.41669 15.12 3.95472 14.86 7.37841C14.8289 7.78849 14.7804 8.17614 14.7062 8.50729C14.3462 10.1152 13.2521 11.6132 12.1454 12.7921C11.0296 13.9806 9.85021 14.8976 9.24192 15.342C8.80136 15.6638 8.19864 15.6638 7.75808 15.342C7.14979 14.8976 5.97038 13.9806 4.85462 12.7921C3.74789 11.6132 2.65383 10.1152 2.29378 8.50729C2.21963 8.17614 2.17112 7.78849 2.13998 7.37841Z" fill="#0063A9"/>
<path fill-rule="evenodd" clip-rule="evenodd" d="M8.5 6.65612C7.99428 6.65612 7.58431 7.04708 7.58431 7.52936C7.58431 8.01163 7.99428 8.4026 8.5 8.4026C9.00572 8.4026 9.41568 8.01163 9.41568 7.52936C9.41568 7.04708 9.00572 6.65612 8.5 6.65612ZM6.48549 7.52936C6.48549 6.46835 7.38742 5.60823 8.5 5.60823C9.61258 5.60823 10.5145 6.46835 10.5145 7.52936C10.5145 8.59037 9.61258 9.45048 8.5 9.45048C7.38742 9.45048 6.48549 8.59037 6.48549 7.52936Z" fill="#0063A9"/>
</g>
</g>
</svg>
