<svg width="18" height="19" viewBox="0 0 18 19" fill="none" xmlns="http://www.w3.org/2000/svg">
<path id="Vector 208" d="M2.26221 3.02962L3.77035 1.71603C4.60327 0.99055 5.8666 1.07765 6.59208 1.91058L7.79267 3.28899C8.29112 3.86126 8.42273 4.66636 8.13245 5.36756L7.99253 5.70554C7.70225 6.40675 7.83386 7.21184 8.33231 7.78412L10.4489 10.2142C10.9473 10.7865 11.7268 11.0273 12.4612 10.836L12.8152 10.7438C13.5496 10.5525 14.329 10.7934 14.8274 11.3656L16.444 13.2216C17.1695 14.0545 17.0824 15.3179 16.2494 16.0433L14.7413 17.3569C13.4919 18.4451 11.5969 18.3145 10.5087 17.0651L1.97038 7.26221C0.882171 6.01282 1.01282 4.11783 2.26221 3.02962Z" stroke="#0063A9" stroke-linecap="round"/>
</svg>
