<svg width="13" height="15" viewBox="0 0 13 15" fill="none" xmlns="http://www.w3.org/2000/svg">
<g id="Profile">
<circle id="Ellipse_736" cx="6.2017" cy="4.15531" r="3.38444" stroke="#BEBEBE" stroke-width="1.0625" stroke-linecap="round" stroke-linejoin="round"/>
<path id="Path_33945" fill-rule="evenodd" clip-rule="evenodd" d="M0.833263 12.2468C0.832354 12.0089 0.885565 11.7739 0.98887 11.5596C1.31305 10.9112 2.22724 10.5676 2.98582 10.412C3.53291 10.2952 4.08755 10.2172 4.64562 10.1785C5.67885 10.0878 6.71804 10.0878 7.75127 10.1785C8.30929 10.2177 8.8639 10.2956 9.41107 10.412C10.1696 10.5676 11.0838 10.8788 11.408 11.5596C11.6158 11.9964 11.6158 12.5037 11.408 12.9406C11.0838 13.6213 10.1696 13.9325 9.41107 14.0817C8.86462 14.2033 8.30978 14.2834 7.75127 14.3216C6.9103 14.3929 6.06542 14.4059 5.22266 14.3605C5.02815 14.3605 4.84013 14.3605 4.64562 14.3216C4.0892 14.2839 3.53648 14.2037 2.9923 14.0817C2.22724 13.9325 1.31953 13.6213 0.98887 12.9406C0.886092 12.7237 0.832935 12.4868 0.833263 12.2468Z" stroke="#BEBEBE" stroke-width="1.0625" stroke-linecap="round" stroke-linejoin="round"/>
</g>
</svg>
