<svg width="17" height="17" viewBox="0 0 17 17" fill="none" xmlns="http://www.w3.org/2000/svg">
<g id="whatsapp-svgrepo-com 1" clip-path="url(#clip0_901_220)">
<g id="Group">
<path id="Vector" d="M0 17L1.462 12.6143C0.720155 11.3666 0.293103 9.91041 0.293103 8.35345C0.293103 3.74 4.0331 0 8.64655 0C13.26 0 17 3.74 17 8.35345C17 12.9669 13.26 16.7069 8.64655 16.7069C7.24288 16.7069 5.92098 16.359 4.76 15.7476L0 17Z" fill="#2CB742"/>
<path id="Vector_2" d="M13.976 11.1336C13.5903 10.4046 12.1679 9.57103 12.1679 9.57103C11.8461 9.38755 11.4577 9.36704 11.2742 9.69414C11.2742 9.69414 10.812 10.2484 10.6945 10.3281C10.1575 10.6919 9.66009 10.6778 9.15801 10.1757L7.99116 9.00886L6.82432 7.84202C6.32223 7.33993 6.30816 6.84254 6.6719 6.30557C6.75163 6.18804 7.30589 5.72581 7.30589 5.72581C7.63299 5.54204 7.61247 5.15397 7.42899 4.83214C7.42899 4.83214 6.5954 3.40971 5.86645 3.02398C5.55635 2.85985 5.17561 2.91729 4.92764 3.16526L4.41237 3.68054C2.77773 5.31517 3.58259 7.16055 5.21723 8.79519L6.71118 10.2891L8.20513 11.7831C9.83976 13.4177 11.6851 14.2226 13.3198 12.5879L13.8351 12.0727C14.083 11.8241 14.1402 11.4434 13.976 11.1336Z" fill="white"/>
</g>
</g>
<defs>
<clipPath id="clip0_901_220">
<rect width="17" height="17" fill="white"/>
</clipPath>
</defs>
</svg>
