<svg xmlns="http://www.w3.org/2000/svg" width="184" height="51" viewBox="0 0 184 51" fill="none">
  <path d="M98.0169 11.4207C93.1993 11.4207 89.7896 12.5963 87.9453 14.3597L88.3681 11.9075H82.2685L78.4856 34.0644H84.5852L86.8658 21.9412C87.5855 17.7624 90.6488 14.4561 95.363 13.804C100.235 13.1244 103.23 16.371 102.533 20.4901L100.199 34.069H106.366L108.718 20.311C109.618 15.0301 104.764 11.4207 98.0169 11.4207Z" fill="white"/>
  <path d="M137.947 5.17059L133.449 31.4191L132.99 34.0871H121.002L121.02 34.0642C113.742 33.9126 108.142 29.4812 108.866 22.8686C109.631 15.8702 116.643 11.5536 123.481 11.6501H127.943L127.516 13.8589H124.488C118.209 13.7487 115.019 18.6668 115.055 24.1314C115.096 28.4847 118.429 31.7405 122.882 31.9334H127.376L131.906 5.22571L137.947 5.17059Z" fill="white"/>
  <path d="M133.467 31.4191L132.99 34.0871L133.449 31.4191H133.467Z" fill="white"/>
  <path d="M34.7709 5.16157L29.8272 34.0643L35.864 34.0046L40.8075 5.10187L34.7709 5.16157Z" fill="white"/>
  <path d="M4.93444 6.00659L0 34.069L6.0456 34.0093L9.84648 10.7594L4.93444 6.00659Z" fill="white"/>
  <path d="M183.14 14.0244L183.599 11.7697C181.952 11.7284 174.58 11.7329 172.776 11.7329C167.963 11.7329 165.003 15.2184 164.333 19.3099L161.913 34.1287H168.134L170.765 19.0206C171.44 14.8923 173.244 14.2311 176.941 14.0611C178.831 13.9785 181.233 13.9785 183.14 14.0244Z" fill="white"/>
  <path d="M147.982 21.6012H157.582C158.292 18.8322 157.253 13.9324 151.172 13.9002C146.52 13.8773 142.076 17.6198 141.685 24.1406C141.424 28.494 143.992 31.86 148.711 31.86H155.269L154.896 34.0596H147.416C140.83 34.1928 134.119 29.4262 135.239 22.864C136.3 16.6463 143.003 11.5996 151.122 11.6639C159.134 11.7282 164.23 15.5718 163.294 23.0569C163.258 23.3462 163.254 23.4197 163.177 23.81H147.631L147.982 21.6012Z" fill="white"/>
  <path d="M64.3206 21.6059H73.9198C74.6305 18.8369 73.5914 13.9371 67.5098 13.9049C62.8586 13.882 58.4144 17.6245 58.0231 24.1453C57.7622 28.4987 60.3307 31.8647 65.0494 31.8647H71.6078L71.2345 34.0643H63.7539C57.1685 34.1975 50.457 29.4309 51.5771 22.8687C52.6387 16.651 59.3411 11.6043 67.4604 11.6686C75.4717 11.7329 80.5683 15.5765 79.6326 23.0616C79.5966 23.3509 79.5878 23.4244 79.5158 23.8147H63.9699L64.3206 21.6059Z" fill="white"/>
  <path d="M30.0173 29.8074C29.0052 33.1596 23.5623 34.9735 15.7938 34.1745C12.852 33.8622 9.72569 33.2009 7.68799 31.9932C7.68799 31.9932 8.22778 28.6042 8.25027 28.5859C9.67621 29.6375 13.6975 31.3595 16.482 31.7866C21.3086 32.5259 23.8322 31.2631 23.1665 29.3436C22.4648 27.3093 16.1492 24.7009 15.0517 24.1177C10.0496 21.4451 9.20832 18.8093 9.97752 16.3112C11.0301 12.9773 18.034 10.8098 24.9478 11.866C28.0201 12.3344 30.2152 13.3079 32.0595 14.635L29.9048 16.8438C28.7623 15.9484 26.4412 14.4192 23.8322 14.0335C19.7298 13.4089 16.1582 13.9324 15.9243 16.2469C15.6904 18.5337 21.5289 20.7196 24.3178 22.2625C28.8836 24.7744 30.7865 27.3322 30.0173 29.8074Z" fill="white"/>
  <path d="M44.2977 20.1179C42.9032 21.0547 43.0426 22.9972 44.2436 24.0809L54.1848 34.0642H46.6502L39.9433 27.6674C37.6222 25.454 38.0631 21.5139 40.8386 19.6817L52.9432 12.0588L56.5912 12.1139L44.2977 20.1179Z" fill="white"/>
  <path d="M11.0837 2.61291L10.3551 7.36574L2.73492 0H8.8932C10.2517 0 11.2951 1.23987 11.0837 2.61291Z" fill="#DD0613"/>
  <path d="M37.2142 47.4687L37.655 46.9498C38.6581 47.8958 39.5802 48.332 40.9252 48.332C42.2927 48.332 43.2284 47.5468 43.2284 46.4585C43.2284 45.4757 42.7201 44.9017 40.6509 44.4792C38.4602 44.0292 37.5786 43.2715 37.5786 41.8342C37.5786 40.452 38.8157 39.3866 40.507 39.3866C41.834 39.3866 42.711 39.7586 43.6332 40.5163L43.2014 41.0627C42.3422 40.305 41.4831 40.0111 40.48 40.0111C39.1395 40.0111 38.2533 40.7964 38.2533 41.7929C38.2533 42.7756 38.7482 43.3725 40.9118 43.8272C43.0215 44.268 43.9077 45.0349 43.9077 46.4217C43.9077 47.9233 42.6436 48.9612 40.8848 48.9612C39.4319 48.9566 38.3117 48.4652 37.2142 47.4687Z" fill="white"/>
  <path d="M45.1945 46.8304C45.1945 45.4207 46.382 44.6216 48.1003 44.6216C49.0224 44.6216 49.6613 44.741 50.3 44.9155V44.6216C50.3 43.2532 49.4812 42.546 48.1137 42.546C47.304 42.546 46.6428 42.771 46.0311 43.0925L45.7972 42.5184C46.5259 42.174 47.2412 41.9352 48.1543 41.9352C49.054 41.9352 49.7691 42.1878 50.2504 42.6792C50.6912 43.1292 50.9297 43.7583 50.9297 44.5941V48.8234H50.3044V47.6937C49.8501 48.3458 49.0269 48.9841 47.7629 48.9841C46.5214 48.9841 45.1945 48.2678 45.1945 46.8304ZM50.3134 46.284V45.5125C49.7511 45.3655 49.0135 45.2048 48.0599 45.2048C46.6519 45.2048 45.8736 45.8431 45.8736 46.8121C45.8736 47.7948 46.7869 48.3688 47.799 48.3688C49.1529 48.3734 50.3134 47.5238 50.3134 46.284Z" fill="white"/>
  <path d="M52.9625 42.0455H53.6012V43.3083C54.0421 42.5093 54.7843 41.8848 55.9988 41.8848C57.6767 41.8848 58.6574 43.0558 58.6574 44.6768V48.8234H58.0184V44.7962C58.0184 43.4002 57.2493 42.4817 55.9088 42.4817C54.6043 42.4817 53.6056 43.492 53.6056 44.9018V48.8234H52.9669V42.0455H52.9625Z" fill="white"/>
  <path d="M60.7039 39.3866H61.4954V40.2775H60.7039V39.3866ZM60.7803 42.0454H61.419V48.828H60.7803V42.0454Z" fill="white"/>
  <path d="M64.0289 47.083V42.6424H63.0662V42.0454H64.0289V39.8779H64.6676V42.0454H66.9976V42.6424H64.6676V47.0187C64.6676 47.9876 65.2298 48.3366 65.9945 48.3366C66.3183 48.3366 66.5929 48.2723 66.9708 48.0978V48.7086C66.6334 48.8693 66.3049 48.9473 65.891 48.9473C64.8609 48.9473 64.0289 48.3733 64.0289 47.083Z" fill="white"/>
  <path d="M68.0807 46.8303C68.0807 45.4205 69.2683 44.6215 70.9866 44.6215C71.9087 44.6215 72.5475 44.7409 73.1863 44.9154V44.6215C73.1863 43.2531 72.3677 42.5459 71.0002 42.5459C70.1905 42.5459 69.5291 42.7709 68.9174 43.0923L68.6834 42.5183C69.4122 42.1739 70.1275 41.9351 71.0406 41.9351C71.9403 41.9351 72.6556 42.1877 73.1369 42.679C73.5777 43.1291 73.816 43.7582 73.816 44.5939V48.8233H73.1907V47.6936C72.7364 48.3457 71.9132 48.984 70.6492 48.984C69.4122 48.984 68.0807 48.2676 68.0807 46.8303ZM73.1997 46.2839V45.5124C72.6374 45.3654 71.8998 45.2047 70.9462 45.2047C69.5382 45.2047 68.7601 45.843 68.7601 46.8119C68.7601 47.7947 69.6731 48.3687 70.6852 48.3687C72.0392 48.3733 73.1997 47.5237 73.1997 46.2839Z" fill="white"/>
  <path d="M75.8552 42.0454H76.4939V43.9741C77.0157 42.7664 78.1223 41.8847 79.4358 41.9398V42.6562H79.3728C77.8344 42.6562 76.4939 43.841 76.4939 46.0452V48.8234H75.8552V42.0454Z" fill="white"/>
  <path d="M80.2987 50.7013L80.519 50.1319C80.8699 50.3064 81.1578 50.3844 81.6526 50.3844C82.3453 50.3844 82.7996 49.9711 83.2944 48.791L80.1052 42.0497H80.8474L83.6094 48.1113L86.007 42.0497H86.7087L83.8299 49.0711C83.2451 50.4946 82.5657 50.9998 81.6166 50.9998C81.1038 50.9906 80.7396 50.8987 80.2987 50.7013Z" fill="white"/>
  <path d="M91.2839 42.0454H91.999L94.0052 48.0014L96.0114 42.0179H96.5199L98.5261 48.0014L100.532 42.0454H101.225L98.7914 48.8785H98.2427L96.2633 43.0695L94.2708 48.8785H93.7265L91.2839 42.0454Z" fill="white"/>
  <path d="M102.011 46.8303C102.011 45.4205 103.199 44.6215 104.917 44.6215C105.839 44.6215 106.478 44.7409 107.117 44.9154V44.6215C107.117 43.2531 106.298 42.5459 104.931 42.5459C104.121 42.5459 103.46 42.7709 102.848 43.0923L102.614 42.5183C103.343 42.1739 104.058 41.9351 104.971 41.9351C105.871 41.9351 106.586 42.1877 107.067 42.679C107.508 43.1291 107.747 43.7582 107.747 44.5939V48.8233H107.121V47.6936C106.667 48.3457 105.844 48.984 104.58 48.984C103.343 48.984 102.011 48.2676 102.011 46.8303ZM107.13 46.2839V45.5124C106.568 45.3654 105.831 45.2047 104.877 45.2047C103.469 45.2047 102.691 45.843 102.691 46.8119C102.691 47.7947 103.604 48.3687 104.616 48.3687C105.97 48.3733 107.13 47.5237 107.13 46.2839Z" fill="white"/>
  <path d="M109.78 42.0454H110.419V43.9741C110.941 42.7664 112.047 41.8847 113.361 41.9398V42.6562H113.298C111.759 42.6562 110.419 43.841 110.419 46.0452V48.8234H109.78V42.0454Z" fill="white"/>
  <path d="M113.954 45.4207C113.954 43.4553 115.309 41.8848 117.108 41.8848C118.97 41.8848 120.153 43.4277 120.153 45.4345C120.153 45.5539 120.153 45.5952 120.14 45.7008H114.629C114.746 47.3907 115.934 48.3734 117.234 48.3734C118.264 48.3734 118.965 47.9096 119.514 47.308L119.955 47.7076C119.28 48.4515 118.484 48.9842 117.207 48.9842C115.461 48.9842 113.954 47.5606 113.954 45.4207ZM119.46 45.1176C119.37 43.7492 118.601 42.4863 117.076 42.4863C115.758 42.4863 114.746 43.616 114.625 45.1176H119.46Z" fill="white"/>
</svg>